<?xml version="1.0" standalone="no"?>
<!DOCTYPE svg PUBLIC "-//W3C//DTD SVG 20010904//EN"
 "http://www.w3.org/TR/2001/REC-SVG-20010904/DTD/svg10.dtd">
<svg version="1.0" xmlns="http://www.w3.org/2000/svg"
 width="1024.000000pt" height="1024.000000pt" viewBox="0 0 1024.000000 1024.000000"
 preserveAspectRatio="xMidYMid meet">
<metadata>
Created by potrace 1.14, written by Peter Selinger 2001-2017
</metadata>
<g transform="translate(0.000000,1024.000000) scale(0.100000,-0.100000)"
fill="#000000" stroke="none">
<path d="M5960 9926 c0 -55 -3 -67 -12 -58 -7 7 -37 12 -68 12 l-56 0 5 -42 6
-43 70 0 70 0 0 49 c0 62 4 64 178 65 l127 1 0 -40 c0 -21 -5 -51 -12 -66 -10
-22 -10 -28 5 -39 12 -8 14 -15 8 -20 -6 -3 -11 -15 -11 -26 0 -13 7 -19 24
-19 20 0 24 -6 28 -36 5 -42 -2 -47 -76 -48 -50 -1 -51 -2 -54 -33 -2 -17 4
-45 12 -62 20 -39 20 -41 -5 -41 -11 0 -28 -4 -37 -9 -10 -5 -89 -11 -177 -12
l-160 -4 -3 168 -2 167 -50 0 -50 0 0 -92 c0 -51 -3 -151 -7 -222 l-6 -128 59
3 59 4 -1 -54 -2 -53 43 5 c51 7 55 1 55 -78 0 -69 14 -77 30 -19 9 31 16 41
21 32 10 -15 12 -99 3 -123 -6 -15 -8 -15 -25 0 -16 16 -17 16 -12 -4 3 -12
11 -21 19 -21 7 0 16 -12 20 -27 16 -73 19 -78 54 -78 29 0 35 4 45 35 8 24
19 36 34 38 42 6 69 -7 80 -39 9 -25 15 -30 38 -27 20 2 33 13 45 37 9 19 27
41 40 50 23 15 28 51 7 51 -12 0 -12 87 0 94 5 3 12 22 16 42 6 36 7 36 50 32
50 -6 55 0 55 69 l0 44 53 -3 52 -3 3 163 c2 157 2 162 -18 162 -17 0 -20 7
-20 53 0 31 -4 47 -8 39 -6 -9 -16 -10 -34 -3 -14 5 -29 7 -32 4 -3 -4 -6 24
-6 61 l0 68 -66 -7 -66 -7 7 54 7 53 -176 0 -176 0 0 -69z m288 -818 c3 -26 2
-26 -71 -33 -103 -10 -177 1 -177 25 0 32 30 40 140 37 l105 -2 3 -27z"/>
<path d="M150 9975 c0 -10 5 -34 12 -52 11 -30 16 -33 53 -33 22 0 46 -4 53
-9 7 -4 16 -34 19 -66 6 -58 6 -58 -18 -52 -13 4 -41 7 -61 7 l-38 0 0 59 0
58 -47 7 c-26 3 -51 2 -55 -2 -12 -12 2 -162 15 -162 6 0 19 7 29 16 20 19 25
12 30 -46 l3 -35 79 0 78 0 15 -37 c15 -37 16 -38 68 -38 56 0 65 8 65 56 0
23 -3 24 -64 24 -36 0 -67 4 -70 8 -2 4 -2 27 1 50 6 44 32 64 57 43 11 -9 15
-3 20 26 3 21 6 50 6 66 0 25 -3 27 -39 27 l-39 0 6 45 5 45 -39 0 c-22 0 -63
3 -91 6 -47 6 -53 5 -53 -11z"/>
<path d="M710 9943 l0 -43 385 0 c316 0 385 -2 385 -13 0 -15 -31 -47 -46 -47
-5 0 -24 -13 -43 -29 l-34 -28 25 -17 c35 -23 102 -10 106 21 4 27 17 37 65
53 32 10 38 16 35 37 l-3 25 340 -1 c187 -1 345 2 351 6 6 5 15 22 18 40 6 27
4 32 -15 38 -12 4 -370 6 -795 4 l-774 -4 0 -42z"/>
<path d="M2447 9982 l-39 -3 7 -38 6 -39 -47 -7 c-34 -5 -55 -15 -78 -39 -17
-19 -39 -36 -49 -39 -9 -4 -21 -18 -27 -31 -5 -13 -32 -39 -59 -58 -28 -18
-51 -36 -51 -40 0 -4 9 -12 21 -18 31 -17 119 16 119 44 0 31 11 43 48 51 18
4 36 14 39 23 9 25 24 32 66 32 37 0 37 0 37 40 l0 40 328 1 c180 1 338 4 351
8 24 7 50 55 36 69 -7 7 -632 10 -708 4z"/>
<path d="M3508 9983 l-258 -3 0 -35 c0 -28 -4 -36 -24 -41 -14 -3 -27 -12 -30
-20 -3 -7 -12 -11 -21 -8 -11 5 -14 2 -9 -10 4 -10 0 -18 -10 -22 -9 -3 -16
-16 -16 -29 0 -28 -44 -73 -79 -82 -53 -12 -70 -47 -26 -55 27 -6 65 16 65 37
0 18 50 59 121 98 36 20 63 42 69 58 l12 27 369 1 370 0 -7 -57 c-8 -71 -11
-75 -42 -69 -14 3 -38 0 -54 -5 -23 -8 -27 -14 -22 -34 4 -15 2 -24 -5 -24 -6
0 -11 10 -12 23 -1 17 -3 15 -10 -10 -8 -26 -16 -33 -44 -39 -27 -5 -34 -11
-37 -33 -3 -22 -8 -26 -40 -29 -36 -3 -37 -5 -40 -45 l-3 -42 -41 3 c-44 3
-54 -8 -54 -65 0 -21 -5 -23 -49 -23 -49 0 -50 -1 -53 -32 l-3 -33 -400 -6
c-220 -4 -403 -5 -407 -2 -5 2 -8 20 -8 39 0 34 0 34 45 34 41 0 45 2 45 25 0
33 -32 33 -99 -1 -39 -19 -51 -30 -51 -48 0 -13 -6 -28 -12 -33 -8 -6 -169
-13 -394 -17 -344 -6 -382 -5 -388 10 -8 21 -8 20 10 38 8 9 26 16 40 16 30 0
40 21 24 49 -10 20 -9 21 29 15 33 -5 41 -3 50 14 6 11 11 30 11 41 0 18 6 21
45 21 40 0 45 3 47 23 1 25 -2 70 -6 74 -8 8 -66 -30 -66 -43 0 -8 -3 -13 -7
-13 -21 3 -32 -3 -38 -21 -4 -11 -21 -28 -38 -37 -18 -9 -43 -26 -57 -39 -75
-70 -110 -109 -110 -124 0 -23 -28 -25 -440 -25 l-345 0 -3 38 c-3 40 -7 38
73 41 16 1 21 9 23 44 3 42 3 42 43 42 36 0 39 2 39 29 0 28 0 28 -39 18 -29
-8 -41 -17 -46 -34 -3 -15 -19 -29 -44 -39 -27 -10 -41 -23 -45 -40 -6 -21
-12 -25 -38 -22 -30 3 -32 1 -32 -32 l-1 -35 -372 -3 c-205 -1 -373 -1 -373 1
0 24 35 97 47 97 10 0 13 6 9 16 -5 14 -1 16 34 10 l40 -6 0 40 0 41 -52 -3
c-49 -3 -53 -5 -56 -30 -2 -16 -8 -25 -15 -22 -7 2 -21 -13 -32 -33 -16 -31
-27 -39 -58 -44 -20 -3 -41 -9 -45 -13 -8 -9 -11 -801 -4 -1118 l5 -208 1748
0 1748 0 3 38 c3 32 6 37 28 37 20 0 26 6 28 27 3 26 6 27 65 30 l62 3 -3 49
-4 49 45 -5 c50 -6 57 0 57 53 0 27 3 29 36 29 46 0 70 14 78 45 4 14 11 25
16 25 6 0 10 16 10 35 l0 35 55 0 55 0 2 138 c1 75 3 166 4 202 5 318 5 1048
0 1062 -11 24 -38 28 -191 26 -77 -2 -256 -4 -397 -5z m-875 -805 c5 -98 2
-108 -35 -108 -16 0 -5 173 12 192 8 9 16 15 16 14 1 0 4 -45 7 -98z m131 94
c3 -4 1 -43 -3 -85 -4 -42 -3 -84 2 -92 6 -12 2 -15 -23 -15 l-30 0 0 100 c0
99 0 100 24 100 14 0 27 -4 30 -8z m-2235 -8 c29 -6 31 -9 31 -49 l0 -42 -97
-6 c-54 -4 -124 -10 -155 -13 l-58 -7 0 55 c0 30 3 58 7 61 8 9 230 9 272 1z
m2529 -4 c19 0 22 -5 22 -43 0 -24 -5 -48 -12 -55 -15 -15 -74 -16 -83 -1 -5
7 -32 8 -80 4 l-72 -7 -7 32 c-13 65 -11 69 47 73 28 2 77 3 107 1 30 -2 65
-3 78 -4z m-1691 -16 c24 -4 34 -11 39 -30 11 -44 -10 -54 -105 -54 -47 0
-106 -1 -131 -2 l-44 -3 -7 40 c-4 22 -5 44 -3 50 4 10 184 10 251 -1z m888 4
c2 -7 1 -29 -3 -48 l-8 -35 -74 -3 c-41 -2 -102 -5 -135 -5 l-60 -2 -3 53 -3
52 141 0 c103 0 142 -3 145 -12z m1083 -17 c23 -14 10 -46 -21 -49 -23 -3 -27
0 -27 21 0 36 19 47 48 28z m-2662 -18 c17 -23 18 -43 2 -43 -25 0 -37 16 -31
38 7 27 12 27 29 5z m994 -7 c0 -17 -7 -25 -25 -28 -30 -6 -39 4 -30 32 4 13
15 20 31 20 19 0 24 -5 24 -24z m834 2 c9 -35 8 -38 -14 -38 -16 0 -20 7 -20
30 0 36 25 41 34 8z m-1700 -3 c3 -8 1 -15 -4 -15 -6 0 -10 7 -10 15 0 8 2 15
4 15 2 0 6 -7 10 -15z m720 9 c27 -10 20 -44 -9 -44 -18 0 -25 5 -25 18 0 29
9 36 34 26z m1687 -21 c7 -20 5 -23 -20 -23 -34 0 -40 6 -34 31 7 27 43 21 54
-8z m-838 -2 c6 -23 0 -31 -24 -31 -22 0 -31 13 -23 34 9 22 41 20 47 -3z
m962 -51 c3 -5 -1 -10 -9 -10 -9 0 -16 5 -16 10 0 6 4 10 9 10 6 0 13 -4 16
-10z m-2515 -19 c0 -11 -4 -22 -8 -25 -14 -9 -35 12 -29 28 9 23 37 20 37 -3z
m124 -4 c8 -13 7 -20 -4 -27 -24 -16 -30 -12 -30 21 0 33 16 36 34 6z m-264
-2 c-7 -8 -17 -12 -23 -8 -6 4 -3 9 9 14 27 11 28 11 14 -6z m514 -6 c-4 -8
-1 -8 12 -1 27 14 188 16 179 3 -4 -7 4 -11 19 -11 14 0 26 -3 26 -7 0 -5 -60
-7 -133 -6 -167 2 -157 0 -157 18 0 10 10 15 31 15 19 0 28 -4 23 -11z m471
-9 c0 -9 -11 -16 -27 -18 -30 -4 -31 -2 -22 23 8 20 49 16 49 -5z m391 -2 c1
-12 -7 -17 -32 -20 -47 -5 -65 8 -39 28 25 19 67 14 71 -8z m328 16 c33 -13
17 -34 -24 -34 -33 0 -40 3 -40 20 0 21 30 27 64 14z m541 -5 c9 -14 7 -16
-47 -21 -42 -5 -48 -3 -48 13 0 16 8 19 44 19 25 0 48 -5 51 -11z m133 2 c10
-6 10 -10 -2 -20 -21 -18 -70 -10 -74 12 -3 13 3 17 30 17 18 0 39 -4 46 -9z
m-2728 -15 c0 -19 -51 -31 -61 -15 -12 19 -1 29 32 29 18 0 29 -5 29 -14z
m716 -14 c-31 -4 -41 2 -32 17 5 7 16 6 34 -2 l27 -12 -29 -3z m2424 1 c0 -8
-5 -13 -12 -11 -18 6 -21 25 -3 25 8 0 15 -7 15 -14z m-3164 -112 c-4 -5 7
-12 24 -16 33 -7 41 -24 13 -27 -10 0 -29 -3 -43 -4 -14 -2 -60 -7 -102 -10
l-78 -7 0 31 c0 21 6 32 18 35 33 9 173 7 168 -2z m174 -1 c0 -6 10 -6 28 1
22 8 25 8 15 -2 -7 -7 -13 -21 -13 -31 0 -14 -8 -18 -35 -18 -28 0 -35 4 -35
20 0 11 -6 20 -12 21 -7 1 -2 5 12 9 35 11 40 11 40 0z m765 -15 c28 -8 47 -9
53 -3 6 6 12 6 16 0 3 -6 3 -13 -2 -15 -22 -14 -226 -28 -334 -23 -68 3 -198
5 -290 6 -161 0 -168 1 -168 20 0 13 7 20 20 20 11 0 20 4 20 9 0 15 633 2
685 -14z m546 9 c5 -3 9 -12 9 -21 0 -12 -9 -14 -40 -11 -22 2 -41 0 -42 -4
-2 -4 -83 -8 -180 -9 -134 -2 -181 1 -192 11 -11 9 -13 16 -6 25 5 6 7 15 3
19 -8 8 435 -2 448 -10z m859 -6 c224 -3 245 -4 248 -20 3 -16 -7 -18 -100
-18 -57 0 -110 5 -118 10 -10 6 -20 4 -32 -7 -16 -14 -60 -15 -415 -10 -231 4
-400 10 -406 16 -5 5 -7 17 -4 25 5 13 33 16 164 18 87 2 217 0 288 -4 72 -5
240 -9 375 -10z m845 5 c9 -3 15 -13 13 -22 -3 -14 -29 -17 -188 -23 -193 -8
-239 -2 -241 31 0 10 -2 11 -6 4 -8 -21 -22 -15 -20 8 l1 22 213 -7 c117 -4
220 -9 228 -13z m-3071 -34 c-10 -16 -24 -9 -24 12 0 18 2 19 15 9 8 -7 12
-16 9 -21z m2566 21 c0 -5 -4 -10 -10 -10 -5 0 -10 5 -10 10 0 6 5 10 10 10 6
0 10 -4 10 -10z m-2042 -217 c4 -100 4 -103 -17 -103 -20 0 -21 5 -21 104 0
57 3 112 6 121 14 35 27 -18 32 -122z m-396 90 c2 -9 1 -36 0 -59 l-4 -43
-144 2 -144 2 0 52 0 52 68 4 c185 9 220 8 224 -10z m865 -20 c-4 -21 -7 -51
-7 -68 l0 -30 -141 0 c-168 0 -168 0 -173 103 -1 15 12 18 105 22 58 3 132 6
164 8 l58 3 -6 -38z m115 12 c14 -19 9 -65 -7 -65 -8 0 -18 -1 -22 -2 -5 -2
-11 16 -14 39 -5 38 -3 42 15 40 12 -1 24 -6 28 -12z m133 -30 c0 -31 -4 -41
-19 -43 -24 -5 -36 14 -36 56 0 30 2 33 28 30 24 -3 27 -7 27 -43z m577 -5
c-2 -25 -10 -49 -18 -53 -8 -4 -14 -15 -14 -22 0 -20 -29 -19 -36 0 -5 12 -25
14 -99 13 -51 0 -97 2 -104 6 -14 9 -14 46 -1 81 l10 26 132 -3 133 -3 -3 -45z
m853 -5 c0 -62 -12 -85 -45 -85 -24 1 -24 1 -6 15 11 8 16 16 10 16 -5 1 -58
4 -119 8 l-110 6 -3 33 c-6 63 -6 63 140 60 l133 -3 0 -50z m-2275 8 c0 -29
-3 -33 -25 -33 -23 0 -25 4 -23 33 1 26 6 32 25 32 19 0 23 -5 23 -32z m1690
2 c0 -31 -3 -35 -25 -35 -22 0 -25 4 -25 35 0 31 3 35 25 35 22 0 25 -4 25
-35z m710 6 c0 -20 -6 -32 -18 -35 -9 -3 -25 -18 -34 -33 l-17 -28 -1 63 0 62
35 0 c32 0 35 -2 35 -29z m132 12 c8 -41 -3 -63 -33 -63 -27 0 -29 3 -29 40 0
38 2 40 29 40 20 0 31 -6 33 -17z m135 -15 c-3 -7 -5 -2 -5 12 0 14 2 19 5 13
2 -7 2 -19 0 -25z m-1112 0 c-1 -13 -3 -26 -4 -30 -1 -9 -45 -11 -53 -3 -3 3
-3 17 0 30 3 19 11 25 32 25 22 0 27 -4 25 -22z m-1691 -4 c11 -30 7 -36 -21
-29 -35 8 -35 9 -27 29 8 21 40 21 48 0z m1686 -74 c12 -8 12 -10 -2 -15 -23
-9 -50 -3 -56 13 -4 14 36 16 58 2z m984 -33 c-8 -27 -4 -24 -37 -32 -25 -7
-27 -5 -27 23 0 26 4 31 28 34 37 5 44 0 36 -25z m-1704 -7 c0 -5 -6 -10 -14
-10 -8 0 -18 5 -21 10 -3 6 3 10 14 10 12 0 21 -4 21 -10z m-577 -30 c7 1 31
5 54 9 31 6 48 5 60 -5 15 -11 5 -13 -74 -14 -82 0 -93 2 -93 18 0 13 2 14 9
4 6 -11 10 -10 16 5 8 17 8 17 12 1 3 -10 10 -18 16 -18z m1284 18 c28 -11 28
-12 -22 -19 -27 -4 -123 -11 -212 -15 -143 -6 -163 -5 -163 8 0 21 38 26 208
26 78 -1 146 2 149 6 8 8 7 8 40 -6z m601 6 c34 -5 52 -11 52 -20 0 -11 -20
-14 -82 -15 -118 -2 -125 0 -115 26 7 17 54 19 145 9z m-2524 -13 c-13 -12
-184 -24 -184 -13 0 17 12 20 102 20 50 1 87 -3 82 -7z m1476 -22 c0 -5 -13
-9 -30 -9 -28 0 -38 9 -25 22 8 8 55 -3 55 -13z m-1202 -108 c62 -5 116 -11
119 -15 20 -19 -44 -24 -359 -28 l-348 -4 0 21 c0 12 3 25 7 28 9 10 443 8
581 -2z m905 -6 c51 -4 97 -28 77 -40 -17 -11 -693 4 -704 15 -30 30 50 38
339 33 132 -2 261 -5 288 -8z m732 4 c204 -11 238 -16 191 -30 -32 -9 -554
-14 -563 -5 -3 3 -14 1 -25 -5 -10 -6 -36 -9 -56 -7 -30 2 -38 7 -40 25 -3 22
-1 23 88 22 50 0 94 2 98 5 8 9 92 7 307 -5z m998 -5 c49 -12 23 -29 -54 -35
-41 -3 -187 -5 -326 -5 -194 1 -255 4 -265 14 -11 11 -9 16 7 28 17 13 63 14
315 10 162 -3 308 -8 323 -12z m-1081 -144 c-1 -14 -11 -36 -21 -50 -16 -23
-25 -25 -92 -26 -41 -1 -98 -5 -126 -9 l-53 -8 0 56 0 56 73 4 c39 2 106 3
147 3 74 -1 75 -1 72 -26z m455 -52 c-2 -18 -4 -6 -4 27 0 33 2 48 4 33 2 -15
2 -42 0 -60z m-2172 35 c-11 -58 -20 -64 -94 -63 -36 1 -93 -2 -127 -6 -58 -6
-61 -5 -67 17 -4 13 -7 36 -7 51 0 25 3 27 53 31 28 2 96 4 151 5 l98 2 -7
-37z m868 -7 c-2 -22 -6 -43 -10 -47 -5 -3 -68 -9 -141 -12 l-134 -6 -16 39
c-10 22 -20 40 -24 40 -6 0 -28 -64 -28 -83 0 -5 -6 -15 -14 -22 -12 -12 -15
-12 -20 1 -8 20 -8 119 0 126 3 3 91 5 197 4 l192 -1 -2 -39z m1691 12 c-21
-69 -11 -64 -150 -71 -70 -3 -131 -4 -136 -1 -4 3 -8 25 -8 50 l0 44 151 0
150 0 -7 -22z m102 8 c1 0 -1 -19 -5 -41 -5 -31 -11 -40 -26 -40 -27 0 -33 44
-9 62 16 12 16 13 -7 13 -19 0 -21 2 -9 10 12 7 46 5 56 -4z m131 -12 c2 -10
-5 -30 -16 -43 -24 -32 -45 -19 -37 22 10 47 48 63 53 21z m-2517 -29 c0 -38
-3 -45 -20 -45 -14 0 -20 7 -20 23 0 20 25 67 36 67 2 0 4 -20 4 -45z m1675 0
c0 -36 -3 -45 -18 -45 -13 0 -17 7 -15 31 1 17 6 33 10 35 5 3 6 10 3 15 -4 5
0 9 7 9 9 0 13 -15 13 -45z m-830 3 c-10 -44 -13 -48 -36 -48 -20 0 -24 17
-13 58 4 15 14 22 31 22 23 0 24 -3 18 -32z m-978 -10 c-2 -25 -8 -34 -25 -36
-19 -3 -22 1 -22 32 0 32 3 36 25 36 22 0 24 -4 22 -32z m841 5 c-4 -34 -33
-43 -43 -14 -8 27 1 41 26 41 16 0 20 -6 17 -27z m1550 -110 c-16 -2 -40 -2
-55 0 -16 2 -3 4 27 4 30 0 43 -2 28 -4z"/>
<path d="M4674 9978 c-8 -13 -7 -992 1 -1011 4 -10 4 -94 -1 -185 l-9 -167
-33 -3 -32 -3 0 218 c1 120 -2 244 -6 276 l-7 57 -37 0 c-20 0 -39 -2 -41 -5
-3 -2 3 -84 13 -182 24 -228 28 -454 9 -477 -10 -12 -14 -66 -15 -223 l-1
-206 29 -8 c15 -4 35 -17 43 -28 8 -12 20 -21 28 -21 9 0 15 -14 17 -37 l3
-38 52 -3 52 -3 -6 66 -6 66 39 -3 39 -3 3 213 c2 205 2 212 -17 212 -18 0
-19 5 -14 50 5 43 3 50 -12 50 -15 0 -17 16 -13 199 1 110 6 203 10 207 4 4
43 7 87 8 l80 1 6 -207 5 -208 -25 0 c-23 0 -25 -3 -25 -50 l0 -50 74 0 74 0
5 -147 c3 -82 5 -160 5 -174 -1 -42 9 -59 36 -59 31 0 33 6 42 131 4 63 10 96
14 84 4 -11 6 -23 3 -27 -2 -5 5 -8 17 -8 20 0 21 -4 16 -37 -7 -38 -9 -157
-7 -284 l1 -67 40 -4 40 -4 0 110 c0 90 3 114 20 140 16 27 20 58 26 192 7
160 7 161 -15 167 -19 5 -21 9 -12 26 18 33 14 61 -9 61 -19 0 -20 7 -20 189
0 104 -2 196 -6 204 -4 10 6 16 36 21 50 8 142 -3 134 -16 -11 -17 6 -56 26
-61 16 -4 20 -2 15 12 -11 36 5 51 52 51 l46 0 -7 -46 c-3 -26 -6 -111 -6
-190 l0 -144 -28 0 c-16 0 -37 -9 -46 -19 -10 -11 -24 -17 -31 -15 -26 10 -44
-111 -45 -311 l-2 -190 36 0 c30 0 37 -4 46 -29 5 -16 10 -41 10 -56 0 -24 5
-28 38 -34 20 -3 49 -6 65 -6 26 0 27 1 27 61 l0 61 48 -3 47 -3 3 207 2 207
-31 0 -32 0 6 60 c4 45 2 60 -8 60 -21 0 -23 73 -17 737 l5 643 -36 0 c-21 0
-40 0 -44 0 -5 0 -8 -19 -8 -43 0 -23 -2 -88 -3 -143 l-2 -102 -27 -4 c-16 -3
-35 -8 -43 -12 -13 -5 -15 13 -12 141 2 102 6 150 15 155 7 4 -14 8 -45 8
l-58 0 -1 -87 c0 -49 -1 -115 -2 -148 l-2 -60 -43 -3 -43 -3 3 150 3 151 -45
0 -45 0 0 -147 0 -148 -38 1 c-21 1 -40 4 -43 7 -3 3 -5 69 -5 146 2 139 1
140 -21 146 -13 2 -39 1 -58 -4 -19 -5 -29 -9 -22 -10 9 -1 12 -36 12 -141 l0
-140 -40 0 -39 0 0 142 c-1 78 -5 146 -10 151 -4 4 -25 7 -46 5 l-38 -3 2 -87
c2 -86 2 -88 -21 -89 l-23 0 23 -9 c19 -8 22 -17 22 -60 l0 -50 -45 0 -44 0 4
149 4 149 -40 4 c-22 2 -43 0 -45 -4z m334 -410 l-3 -73 -37 -3 -38 -3 0 75 0
76 40 0 41 0 -3 -72z m163 62 c20 -11 23 -37 13 -102 -6 -36 -8 -38 -45 -38
l-39 0 0 75 c0 74 0 75 26 75 14 0 34 -5 45 -10z m359 -59 l0 -68 -32 -6 c-18
-3 -40 -8 -49 -12 -17 -6 -16 -7 -3 102 4 33 10 43 27 46 58 11 57 12 57 -62z
m-692 -3 l-3 -63 -42 -3 -43 -3 0 65 0 66 45 0 46 0 -3 -62z m522 10 c0 -66
-6 -74 -53 -83 l-37 -7 0 71 0 71 45 0 45 0 0 -52z m-544 -128 c23 0 24 -3 24
-70 l0 -70 -29 0 c-55 0 -61 7 -61 74 0 66 5 80 28 71 7 -3 25 -5 38 -5z m544
-59 c0 -39 -3 -72 -7 -74 -5 -2 -25 -2 -46 1 l-38 4 3 62 c3 59 4 61 33 67 56
12 55 13 55 -60z m168 -3 l-3 -73 -42 -3 -43 -3 0 58 c0 65 6 78 35 86 55 13
56 12 53 -65z m-518 -8 l0 -70 -39 0 c-44 0 -51 12 -51 93 l0 47 45 0 45 0 0
-70z m170 0 l0 -70 -40 0 -40 0 0 70 0 70 40 0 40 0 0 -70z m-176 -112 c12
-45 7 -228 -6 -232 -7 -3 -25 -7 -40 -10 l-28 -6 0 119 c0 95 3 123 16 135 22
23 51 20 58 -6z m166 12 c0 -5 -9 -10 -21 -10 -11 0 -17 5 -14 10 3 6 13 10
21 10 8 0 14 -4 14 -10z m-332 -100 c5 -114 -2 -137 -41 -143 -18 -2 -35 0
-39 7 -10 14 -10 200 -1 210 4 4 23 6 43 4 l35 -3 3 -75z m342 -12 c0 -109 -6
-139 -26 -131 -8 3 -20 0 -28 -6 -7 -6 -16 -8 -19 -4 -4 3 -7 57 -7 120 l0
113 40 0 40 0 0 -92z m177 -62 c-5 -82 -15 -98 -52 -94 -13 2 -22 13 -26 33
-9 43 -10 178 -1 192 4 6 21 13 37 15 27 3 31 0 38 -32 5 -19 6 -70 4 -114z
m176 50 c4 -55 3 -104 -2 -109 -4 -4 -24 -10 -44 -14 l-36 -5 -3 102 c-2 56 0
107 4 113 3 7 22 12 41 13 l34 0 6 -100z m-368 -170 c0 0 -1 -88 -3 -193 l-3
-193 -52 0 c-29 0 -62 -3 -75 -6 l-22 -6 2 198 3 199 45 6 c36 5 105 2 105 -5z
m-15 -448 c0 -52 -1 -52 -18 -32 -9 12 -25 24 -34 27 -10 4 -18 16 -18 30 0
19 6 23 35 25 l35 3 0 -53z m-480 -41 c0 -11 8 -21 19 -24 25 -6 32 -55 27
-195 -2 -62 -2 -97 1 -78 9 71 23 54 23 -28 l0 -83 -82 3 -83 3 -3 166 c-3
169 5 219 33 219 8 0 15 8 15 18 0 12 8 17 25 17 18 0 25 -5 25 -18z m467 -49
c-3 -8 -6 -5 -6 6 -1 11 2 17 5 13 3 -3 4 -12 1 -19z m463 -85 c0 -60 3 -145
7 -190 l6 -83 -82 0 -81 0 0 190 0 190 75 0 75 0 0 -107z m-432 0 c2 -8 -5
-13 -17 -13 -12 0 -21 6 -21 16 0 18 31 15 38 -3z"/>
<path d="M4653 8227 c-6 -6 -13 -24 -17 -39 -6 -26 -4 -28 22 -28 26 0 28 2
24 35 -5 39 -15 51 -29 32z"/>
<path d="M5500 8205 c-22 -26 -4 -47 37 -43 33 3 38 7 41 31 3 25 1 27 -31 27
-19 0 -40 -7 -47 -15z"/>
<path d="M7570 9955 c0 -60 -5 -59 505 -60 413 -1 495 -5 495 -22 0 -17 -59
-56 -91 -60 -25 -4 -36 -10 -35 -21 1 -12 -13 -19 -52 -25 l-53 -9 7 -34 c6
-33 5 -34 -27 -34 -58 0 -79 -10 -79 -36 0 -22 -4 -24 -50 -24 -49 0 -50 -1
-50 -30 0 -30 -1 -30 -54 -30 l-55 0 -3 -42 -3 -43 -38 3 c-35 3 -38 2 -35
-20 3 -21 -1 -23 -47 -28 -47 -5 -50 -7 -48 -32 2 -27 0 -28 -47 -28 l-49 0
-3 -47 c-3 -43 -6 -48 -28 -51 -14 -1 -36 -5 -49 -8 -22 -5 -22 -6 -7 -23 26
-29 19 -38 -34 -45 l-50 -7 -2 -757 -3 -757 -372 0 -373 0 0 38 0 39 -50 -4
-50 -3 0 675 c0 371 3 730 7 798 l6 122 -57 0 -56 0 0 -806 1 -806 39 7 c38 6
40 5 40 -18 0 -32 23 -51 55 -45 27 6 29 2 26 -53 l-2 -36 443 1 443 1 3 47 3
47 96 3 95 3 -6 -53 -6 -53 47 7 c27 4 58 11 71 15 25 9 24 10 22 -47 l-1 -41
243 -7 c134 -3 326 -7 428 -8 l185 -2 -3 52 -4 52 72 0 72 0 -6 38 c-4 20 -10
46 -13 56 -5 17 -1 18 28 12 19 -3 52 -9 73 -13 l39 -6 -7 53 -7 52 73 -3 73
-4 0 37 c0 45 8 53 53 53 36 0 37 2 42 40 l5 40 58 -3 57 -4 0 57 0 57 65 -4
c70 -4 71 -4 55 51 l-9 33 79 -7 80 -7 0 52 0 52 38 -7 c20 -4 42 -7 47 -8 6
-1 9 20 7 51 l-3 52 51 0 50 0 0 758 0 758 -85 0 c-80 -1 -85 -2 -85 -23 0
-12 -4 -33 -10 -47 -8 -21 -16 -26 -45 -26 -32 0 -35 -3 -35 -28 0 -30 -30
-52 -70 -52 -13 0 -20 -7 -20 -18 0 -25 -20 -42 -49 -42 -53 0 -71 -11 -71
-41 0 -28 -1 -29 -54 -29 -51 0 -54 -2 -59 -28 -5 -24 -14 -31 -61 -45 -43
-14 -56 -23 -56 -38 0 -15 -7 -19 -39 -19 -40 0 -51 -11 -51 -52 0 -19 -4 -20
-46 -14 -57 7 -75 -5 -67 -45 l6 -29 -67 0 c-66 0 -66 0 -66 -28 0 -16 -6 -36
-13 -45 -10 -15 -19 -16 -66 -7 -30 5 -57 7 -60 4 -3 -3 -7 -343 -9 -756 l-3
-750 -29 -11 c-36 -14 -38 -25 -6 -33 14 -3 27 -12 30 -19 7 -20 -97 -26 -429
-23 l-290 3 -3 38 c-3 33 -6 37 -30 37 -46 0 -101 20 -112 40 -11 21 -6 1460
5 1498 4 12 13 22 20 22 7 0 15 7 19 15 4 11 20 15 56 15 l50 0 -2 43 -3 42
66 -3 67 -4 -5 44 -5 43 63 0 63 0 -3 42 -3 43 61 -6 61 -7 0 43 0 43 55 -7
55 -6 0 44 0 44 63 -1 62 -2 3 43 3 42 56 -6 c51 -7 55 -6 50 12 -3 10 -9 31
-12 46 l-7 26 62 -5 c68 -7 80 0 80 50 l0 27 449 0 449 0 6 31 c3 17 6 38 6
45 0 12 -76 14 -460 14 l-460 0 0 -45 0 -45 -76 0 c-71 0 -75 1 -70 20 3 11 8
28 11 39 4 13 -1 20 -17 25 -13 3 -272 6 -575 6 l-553 0 0 -35z"/>
<path d="M6732 9935 l5 -44 -46 -3 c-46 -3 -46 -3 -49 -43 -2 -21 -1 -54 3
-73 6 -34 9 -35 63 -14 11 4 12 -5 7 -42 -7 -46 -7 -46 22 -46 16 0 34 -5 39
-10 7 -7 46 -10 95 -8 l84 3 3 38 c3 38 7 40 55 37 26 -1 27 0 27 48 0 35 4
52 15 56 26 10 16 33 -17 40 -58 12 -88 29 -88 53 0 12 6 24 13 26 33 14 -27
27 -127 27 l-109 0 5 -45z m131 -97 c7 -56 27 -91 27 -46 0 33 27 58 41 37 5
-8 9 -28 9 -45 l0 -31 -60 -1 c-56 -1 -83 9 -60 23 15 9 12 25 -5 25 -8 0 -15
-9 -15 -19 0 -11 -5 -23 -10 -26 -14 -9 -30 39 -30 91 l0 44 49 0 48 0 6 -52z"/>
<path d="M7445 9860 l7 -40 -66 0 c-60 0 -66 -2 -66 -21 0 -45 17 -59 75 -59
l55 0 0 41 0 41 60 -7 60 -7 0 46 0 46 -66 0 -66 0 7 -40z"/>
<path d="M576 9856 c-9 -18 -16 -46 -14 -62 4 -38 34 -45 48 -10 8 23 15 26
55 26 l45 0 0 40 0 40 -58 0 c-55 0 -58 -1 -76 -34z"/>
<path d="M1321 9734 c-12 -19 -21 -37 -21 -40 0 -2 20 -4 45 -4 35 0 45 4 45
16 0 9 -9 18 -20 21 -18 5 -24 15 -21 36 2 16 -8 5 -28 -29z"/>
<path d="M434 9746 c-15 -38 31 -70 90 -64 28 3 31 6 31 38 l0 35 -58 3 c-44
2 -59 0 -63 -12z"/>
<path d="M7217 9753 c-4 -3 -7 -23 -7 -44 0 -37 0 -37 50 -44 61 -8 70 -3 70
40 0 32 -3 35 -37 40 -21 4 -45 9 -54 11 -8 2 -18 1 -22 -3z"/>
<path d="M4367 9663 c-4 -3 -7 -26 -7 -50 l0 -43 49 0 c53 0 61 10 61 73 0 26
-2 27 -48 27 -27 0 -52 -3 -55 -7z"/>
<path d="M1235 9648 c-54 -20 -56 -33 -3 -33 43 0 48 2 48 23 0 25 -2 25 -45
10z"/>
<path d="M7102 9652 c-9 -6 -11 -18 -7 -35 6 -21 3 -28 -11 -32 -11 -3 -41
-17 -69 -30 -27 -13 -59 -26 -69 -27 -21 -3 -41 -50 -32 -73 4 -11 21 -15 61
-15 52 0 55 1 55 26 0 14 -5 34 -11 46 -9 17 -8 19 8 14 10 -2 35 -8 56 -12
l37 -6 0 37 0 37 43 -4 42 -3 0 40 0 40 -45 3 c-25 1 -51 -2 -58 -6z"/>
<path d="M2907 9630 c-3 -12 0 -20 8 -20 7 0 27 -3 44 -6 28 -6 31 -4 31 17 0
21 -5 24 -39 27 -32 2 -40 -1 -44 -18z"/>
<path d="M2817 9562 c-25 -28 -21 -32 28 -32 45 0 51 5 37 26 -14 22 -48 25
-65 6z"/>
<path d="M4315 9470 l-50 -7 47 -1 c45 -2 47 -3 54 -37 5 -28 11 -35 29 -35
12 0 28 -7 35 -15 23 -28 31 -15 28 43 l-3 57 -45 1 c-25 1 -67 -2 -95 -6z"/>
<path d="M6754 9435 c-8 -19 0 -80 9 -77 4 1 39 2 78 2 l70 0 -3 32 c-3 34
-15 40 -106 51 -30 4 -45 1 -48 -8z"/>
<path d="M4380 9290 c0 -38 2 -40 29 -40 17 0 33 -4 36 -10 7 -11 45 -14 45
-4 0 3 -11 15 -25 26 -14 11 -25 30 -25 44 0 20 -5 24 -30 24 -28 0 -30 -2
-30 -40z"/>
<path d="M6835 9236 c-10 -29 -21 -924 -15 -1176 l5 -205 31 3 c41 4 67 -22
62 -59 l-4 -28 195 -3 c108 -2 200 0 205 5 6 4 26 7 46 7 35 0 36 1 32 32 l-5
31 55 -6 54 -5 2 471 c1 260 5 565 8 680 6 198 6 207 -12 208 -11 1 -130 4
-265 7 -218 6 -249 9 -267 25 -11 10 -42 21 -70 26 -46 7 -51 6 -57 -13z m475
-116 l0 -30 -87 -1 c-118 -1 -249 -29 -247 -52 1 -9 -2 -17 -7 -17 -21 0 -20
32 2 75 l23 46 138 -2 c76 -1 141 1 145 4 16 17 33 5 33 -23z m60 -47 c0 -3
-11 -26 -25 -50 -17 -27 -33 -43 -45 -43 -11 0 -20 3 -20 6 0 11 23 50 43 72
19 21 47 30 47 15z m-420 -121 c8 -97 -2 -211 -20 -222 -37 -24 -40 -14 -40
133 0 79 3 147 7 151 4 4 16 6 28 4 17 -3 21 -12 25 -66z m463 -74 c-5 -175
-5 -174 -38 -152 -25 16 -25 17 -22 143 1 69 6 132 10 139 5 6 19 12 31 12
l23 0 -4 -142z m-205 -34 l3 -51 -48 -6 c-26 -3 -51 -3 -55 0 -10 5 -10 97 -1
107 4 4 28 6 53 4 l45 -3 3 -51z m-208 -114 c18 -18 33 -20 149 -20 76 0 132
4 136 10 24 39 63 -42 49 -103 l-7 -32 -9 27 c-5 14 -17 29 -26 33 -9 3 -70 3
-135 -1 l-119 -7 -19 -31 -19 -31 0 42 c0 37 -3 43 -25 49 -27 7 -33 31 -15
65 13 24 15 24 40 -1z m270 -210 c10 -5 57 -13 103 -16 111 -9 118 -13 83 -58
-38 -51 -60 -60 -96 -42 -22 11 -32 11 -37 3 -5 -7 -10 5 -13 28 l-5 40 -60 7
c-33 3 -99 9 -147 13 -83 6 -111 18 -70 28 34 9 224 7 242 -3z m-10 -160 l0
-30 -112 0 c-118 0 -126 -2 -144 -35 -6 -11 -20 -24 -32 -30 -24 -11 -21 -43
4 -58 20 -11 17 -47 -3 -63 -14 -10 -19 -32 -23 -106 -5 -87 -6 -93 -28 -96
l-22 -3 2 168 c2 128 6 167 16 166 6 -2 12 6 12 17 0 21 27 40 59 40 17 0 21
6 21 30 l0 30 125 0 125 0 0 -30z m86 -55 c4 -8 4 -22 0 -30 -8 -21 -50 -3
-54 24 -3 17 2 21 23 21 14 0 28 -7 31 -15z m64 -224 l0 -170 -31 9 c-18 5
-34 12 -37 15 -3 3 0 46 6 97 13 104 4 128 -49 128 -15 0 -30 4 -33 9 -8 12
18 21 55 21 21 0 38 9 56 30 13 17 27 30 29 30 2 0 4 -76 4 -169z m-140 135
l75 -13 -75 -6 c-107 -10 -205 -11 -219 -3 -9 6 -9 11 -1 21 14 17 123 18 220
1z m-58 -172 c1 -31 0 -58 -4 -60 -4 -3 -30 -2 -58 2 l-50 7 0 53 0 54 54 0
54 0 4 -56z m108 -138 c0 -13 2 -31 5 -39 5 -11 -4 -13 -48 -9 -29 2 -106 -1
-172 -7 -65 -6 -120 -9 -123 -7 -2 2 0 20 3 39 6 32 9 34 34 27 15 -4 46 -6
69 -5 26 1 42 -2 42 -9 0 -7 4 -6 9 2 5 9 27 13 67 11 33 -2 68 2 79 9 29 17
35 15 35 -12z m-360 -111 c0 -8 -4 -15 -10 -15 -5 0 -10 7 -10 15 0 8 5 15 10
15 6 0 10 -7 10 -15z"/>
<path d="M7957 9148 c-4 -24 -6 -332 -6 -684 l0 -642 41 5 40 6 -4 -34 c-3
-33 -2 -34 31 -31 39 3 51 -9 51 -52 l0 -29 53 7 c28 3 129 6 224 6 139 0 171
3 167 13 -7 20 13 67 29 67 8 0 26 11 40 24 l26 24 1 628 c1 346 2 637 1 647
-1 16 -7 17 -46 11 -37 -5 -45 -3 -45 9 0 33 13 47 44 48 26 1 24 3 -14 10
-25 4 -176 8 -336 8 l-292 1 -5 -42z m422 -80 c13 -34 2 -90 -16 -84 -8 3 -70
6 -137 6 -109 0 -122 2 -123 18 -1 9 -4 28 -5 42 -3 24 0 25 67 31 39 3 100 6
138 7 62 2 68 0 76 -20z m111 12 c0 -5 -9 -19 -20 -30 -11 -11 -17 -26 -14
-35 4 -8 1 -15 -5 -15 -6 0 -10 5 -8 12 1 7 -4 13 -10 14 -7 1 -17 2 -23 3 -5
0 -10 12 -10 25 0 21 5 25 38 29 20 2 40 4 45 5 4 1 7 -2 7 -8z m-402 -121
c-2 -61 -6 -74 -20 -77 -16 -3 -18 5 -18 63 0 69 15 114 31 98 6 -6 9 -43 7
-84z m468 16 c-7 -28 -32 -33 -62 -11 -14 11 -16 17 -7 26 13 14 37 4 27 -11
-3 -5 0 -8 8 -7 7 2 16 12 21 22 11 27 21 12 13 -19z m-102 -101 c9 -3 16 -15
16 -25 0 -17 -8 -19 -87 -19 -92 0 -187 25 -161 41 15 10 208 12 232 3z m-364
-133 c1 -9 7 -1 15 17 l14 32 80 0 c81 0 94 -6 101 -45 2 -12 -27 -23 -70 -25
-34 -2 -33 -2 15 -15 l50 -13 -41 -1 c-23 0 -56 -4 -74 -8 -29 -5 -32 -4 -27
12 6 14 3 17 -18 13 -14 -3 -29 0 -33 6 -4 6 -9 -7 -12 -29 -4 -32 -9 -40 -25
-40 -20 0 -23 20 -16 130 l2 30 19 -24 c11 -13 20 -31 20 -40z m460 -1 c0 -10
2 -24 5 -32 7 -20 -10 -39 -28 -32 -12 4 -17 18 -17 43 0 30 4 37 20 38 13 1
20 -4 20 -17z m-66 -96 c3 -9 6 -26 6 -38 0 -22 -5 -23 -82 -29 -46 -4 -118
-7 -160 -7 -42 0 -88 -4 -102 -10 -25 -9 -26 -8 -26 29 0 35 3 39 31 45 17 3
70 6 118 7 47 0 106 4 131 8 69 13 77 12 84 -5z m-56 -270 c4 -38 -1 -39 -140
-49 l-98 -7 0 40 0 41 93 4 c147 5 142 6 145 -29z m-262 -66 c5 -7 8 -33 9
-58 0 -39 3 -45 20 -42 147 19 156 19 166 0 6 -10 8 -22 5 -27 -3 -4 -42 -11
-87 -14 -45 -4 -87 -11 -94 -17 -16 -13 -25 -3 -25 29 0 30 -7 42 -35 57 -24
13 -32 63 -13 75 19 13 46 11 54 -3z m345 -50 c30 -47 28 -68 -7 -68 -25 0
-39 22 -51 83 -9 43 27 34 58 -15z m-426 -45 c4 -10 9 -76 11 -147 4 -135 1
-145 -38 -146 -16 0 -18 14 -18 148 0 82 3 152 7 155 12 13 31 7 38 -10z m495
-60 c0 -19 -4 -24 -16 -19 -9 3 -40 6 -70 6 -38 0 -54 4 -54 13 0 9 9 12 28 9
15 -2 44 3 63 11 41 17 49 14 49 -20z m-238 -103 c-2 -25 -7 -48 -11 -52 -4
-4 -27 -11 -51 -14 l-45 -6 3 61 4 62 51 -3 52 -3 -3 -45z m203 -28 c13 -8 39
-92 31 -99 -6 -6 -62 37 -70 54 -7 17 5 53 18 53 6 0 16 -4 21 -8z m-80 -144
c6 -31 4 -38 -8 -38 -9 0 -22 7 -30 15 -11 10 -17 11 -19 3 -3 -7 -47 -13
-133 -15 -71 -3 -137 -9 -147 -14 -16 -8 -18 -5 -18 23 0 56 3 57 164 56 97 0
151 3 159 11 15 15 24 3 32 -41z"/>
<path d="M4235 9149 c-9 -28 15 -339 27 -339 4 0 8 5 8 10 0 6 5 10 11 10 16
0 1 -156 -19 -202 -14 -30 -23 -38 -44 -38 -36 0 -40 -10 -32 -71 l7 -51 74 3
75 4 0 -130 c0 -258 1 -244 -27 -251 -14 -3 -44 -3 -68 0 l-42 7 -1 157 c0
151 -10 212 -33 212 -16 0 -19 -29 -23 -225 l-3 -190 35 -5 c34 -5 35 -6 38
-57 3 -48 5 -53 26 -53 13 0 38 -3 56 -7 l33 -6 -6 63 -7 63 45 -6 c42 -6 46
-5 56 19 5 15 10 110 12 213 l2 186 -37 3 c-36 3 -38 5 -38 37 0 19 5 46 10
60 9 23 7 28 -10 32 -11 3 -22 15 -24 27 -3 11 -7 133 -10 270 -3 137 -9 252
-13 256 -4 5 -22 11 -40 15 -27 5 -32 3 -38 -16z"/>
<path d="M5836 8964 c8 -200 12 -216 52 -208 38 8 42 -7 42 -148 0 -122 -4
-138 -34 -138 -47 0 -48 -4 -50 -236 l-1 -219 47 3 47 4 -5 -49 -6 -48 65 3
66 4 3 46 c3 47 6 50 44 38 21 -6 22 -3 28 86 13 202 13 213 -13 216 -22 3
-23 7 -19 75 l3 72 -40 1 -40 0 -3 149 c-1 84 -7 154 -13 161 -6 7 -25 14 -42
16 -30 3 -33 6 -39 48 -3 25 -7 95 -7 156 l-1 112 -27 5 c-16 3 -36 9 -45 12
-17 7 -18 -4 -12 -161z m164 -564 c0 -27 7 -47 21 -61 18 -18 22 -37 26 -133
3 -62 3 -129 -1 -149 -7 -36 -8 -37 -51 -37 -45 0 -45 0 -45 35 0 35 -1 36
-37 33 l-38 -3 -5 127 -5 127 25 3 c22 3 25 9 28 45 3 43 4 44 70 52 8 0 12
-13 12 -39z"/>
<path d="M5947 8223 c-4 -3 -7 -19 -7 -34 0 -30 20 -42 56 -33 18 5 24 13 24
34 0 28 -15 40 -49 40 -10 0 -21 -3 -24 -7z"/>
<path d="M6360 9101 c-5 -11 -10 -67 -10 -125 l0 -105 -32 10 c-37 10 -272 12
-330 3 -44 -8 -47 -19 -15 -55 l22 -26 169 8 c93 5 170 8 172 7 1 -2 -2 -50
-6 -108 -5 -58 -9 -135 -10 -172 l0 -68 -34 0 -34 0 -7 -67 c-3 -38 -10 -76
-15 -85 -13 -23 -13 -223 0 -269 9 -31 16 -38 45 -43 33 -7 35 -9 35 -46 l0
-40 59 0 60 0 3 43 c3 42 3 42 43 43 l40 0 3 157 c2 132 0 158 -12 163 -12 5
-14 19 -9 70 6 68 5 70 -49 65 -11 -2 -20 7 -24 23 -6 24 0 205 12 386 3 47 3
122 -1 168 l-7 82 -29 0 c-18 0 -32 -7 -39 -19z m32 -723 c3 -46 6 -53 25 -56
20 -3 21 -7 20 -116 -1 -68 -7 -118 -14 -127 -6 -8 -13 -25 -15 -39 -3 -22 -8
-25 -50 -28 l-48 -3 0 35 c0 25 -5 36 -15 36 -18 0 -22 20 -30 148 l-6 102 26
0 c21 0 25 5 27 33 0 17 2 37 3 42 2 6 3 13 4 18 0 4 17 7 35 7 l35 0 3 -52z"/>
<path d="M6332 8194 c3 -25 31 -55 41 -44 3 3 8 20 12 38 6 31 5 32 -25 32
-28 0 -31 -3 -28 -26z"/>
<path d="M3797 8234 c-11 -11 -8 -62 3 -69 6 -4 34 -9 63 -11 42 -4 59 -1 86
16 33 21 34 22 15 40 -13 13 -40 20 -90 25 -38 3 -73 2 -77 -1z"/>
<path d="M4262 8195 c-42 -18 -40 -25 8 -25 28 0 40 4 40 14 0 23 -12 25 -48
11z"/>
<path d="M3743 8122 c-13 -43 -7 -86 11 -75 7 4 6 1 -1 -9 -14 -16 -8 -28 14
-28 9 0 13 17 13 60 0 33 -4 60 -9 60 -5 0 -11 7 -13 16 -2 8 -8 -2 -15 -24z"/>
<path d="M4006 8141 c-3 -5 -14 -7 -24 -4 -49 12 -57 -80 -10 -107 24 -13 29
-13 42 0 8 8 18 39 22 68 5 43 4 52 -9 52 -9 0 -18 -4 -21 -9z"/>
<path d="M3145 8077 c-8 -13 -26 -29 -39 -35 -17 -7 -25 -22 -30 -52 -7 -42
-7 -42 -44 -37 -20 3 -46 8 -58 12 -18 6 -20 3 -16 -29 4 -37 3 -39 -48 -40
-22 -1 -25 -6 -28 -40 -3 -38 -4 -38 -38 -33 -36 6 -37 5 -46 -58 -2 -11 -14
-22 -27 -25 -17 -4 -38 -27 -64 -70 l-40 -65 2 -99 c1 -55 6 -107 12 -117 5
-10 9 -39 9 -66 -1 -42 -2 -46 -14 -30 -13 16 -14 16 -20 -5 -9 -37 -7 -222 4
-238 8 -13 10 -13 10 2 0 9 5 29 12 43 12 26 12 26 23 5 10 -18 13 11 18 146
4 92 7 204 7 250 0 101 4 112 36 106 22 -4 24 -2 24 39 0 60 10 73 49 64 31
-7 31 -6 31 33 0 42 16 57 46 45 18 -7 34 12 34 42 0 14 15 27 51 44 30 15 70
46 98 78 25 29 51 53 57 53 15 0 24 23 24 60 0 39 -16 46 -35 17z"/>
<path d="M3830 8092 c0 -4 4 -13 9 -21 10 -15 34 -5 28 12 -3 11 -37 19 -37 9z"/>
<path d="M4950 8067 c0 -18 -3 -62 -7 -99 l-6 -68 42 0 41 0 0 90 c0 53 -4 90
-10 90 -5 0 -10 -4 -10 -10 0 -5 -4 -10 -10 -10 -5 0 -10 6 -10 14 0 8 -7 16
-15 20 -11 4 -15 -2 -15 -27z"/>
<path d="M3837 7983 c-30 -21 -34 -29 -27 -44 9 -15 19 -17 63 -12 28 3 56 9
60 13 13 11 -4 40 -33 55 -25 13 -30 12 -63 -12z"/>
<path d="M9618 7953 l-3 -38 -57 -3 -58 -3 0 -46 0 -46 -41 7 -42 7 7 -47 c3
-26 6 -101 6 -166 l0 -120 50 4 50 3 0 -49 c0 -34 4 -47 13 -43 52 19 56 18
59 -10 3 -28 3 -28 86 -31 l82 -3 0 37 c0 34 1 36 27 29 15 -3 32 -7 38 -8 5
-1 11 20 13 47 l3 48 43 -6 43 -7 7 62 c3 34 6 104 6 155 l0 94 -51 0 -50 0 3
42 3 43 -37 -3 -38 -4 0 41 0 41 -64 0 c-35 0 -71 3 -80 6 -11 4 -15 -3 -18
-33z m117 -110 l-1 -48 -67 -3 c-82 -4 -90 -22 -9 -22 73 0 99 -15 51 -28 -22
-7 -27 -11 -14 -12 l20 -1 -20 -9 c-29 -12 -95 -12 -95 0 0 6 -12 22 -27 36
-29 27 -23 44 16 47 17 1 21 8 21 37 0 20 3 40 7 43 3 4 32 7 62 7 l57 0 -1
-47z m-167 -190 c2 -30 -1 -43 -10 -44 -72 -6 -73 -5 -76 29 -5 53 3 64 45 60
37 -3 38 -4 41 -45z m182 -72 c30 -57 5 -74 -95 -69 -58 3 -60 4 -63 31 -6 52
1 57 77 57 59 0 72 -3 81 -19z"/>
<path d="M235 7968 c-22 -5 -58 -12 -81 -15 l-40 -5 5 -591 c3 -326 5 -679 4
-784 0 -211 -3 -204 61 -178 34 14 36 18 36 63 0 26 0 359 0 740 l0 692 1052
0 1053 0 0 -702 c0 -387 4 -722 8 -745 l9 -43 -1051 0 c-579 0 -1052 -4 -1055
-9 -3 -4 -8 -35 -11 -67 -6 -55 -5 -58 10 -39 15 19 28 20 258 20 l242 0 0
-140 0 -140 425 2 c234 1 476 5 538 9 l112 6 0 118 c0 84 4 121 12 127 7 4
130 10 273 13 l260 5 -3 44 -4 44 44 -5 43 -5 4 788 3 789 -32 -7 c-25 -4 -35
-2 -42 10 -8 16 -92 17 -1051 16 -627 -1 -1058 -5 -1082 -11z m733 -1664 c21
-6 21 -7 5 -19 -17 -13 -16 -14 8 -23 26 -10 239 -32 250 -26 3 2 71 4 149 5
l144 1 19 -26 c13 -18 28 -26 48 -26 28 0 29 -2 29 -44 l0 -44 -72 -6 c-40 -3
-214 -7 -386 -9 l-312 -2 0 113 0 112 48 0 c26 0 57 -3 70 -6z"/>
<path d="M2665 7800 c-8 -13 -1 -24 14 -19 6 3 7 10 2 18 -6 10 -10 10 -16 1z"/>
<path d="M4690 7800 l-1545 -5 -9 -152 -8 -153 -69 0 -69 0 0 -52 c0 -29 0
-1113 -1 -2408 -1 -1295 0 -2377 3 -2405 l4 -50 75 -5 74 -5 3 -67 3 -67 62 1
c34 1 743 -2 1575 -6 l1512 -8 0 76 0 76 155 -3 155 -4 0 68 0 68 78 3 77 3 3
73 3 73 72 -3 72 -3 3 75 3 76 68 -4 69 -4 7 150 7 149 47 -5 c25 -2 52 -9 59
-15 22 -18 32 12 32 101 l0 82 68 0 69 0 6 123 c4 67 7 349 7 627 l0 505 -67
0 -68 0 -3 84 -3 84 -69 -6 -68 -6 -7 150 -8 149 -73 0 -74 0 0 70 0 70 68 0
67 0 0 72 0 73 30 3 c62 5 95 13 95 23 0 6 -6 7 -12 3 -10 -6 -10 -4 0 7 6 7
12 27 12 44 0 18 7 46 16 64 12 23 15 51 12 98 l-4 65 75 -4 76 -3 3 478 3
477 -70 0 -71 0 0 48 c0 27 -3 97 -7 155 l-6 107 -69 0 -68 0 0 78 0 79 -76
-5 -76 -5 7 82 7 81 -86 0 -86 0 0 80 0 80 -47 0 c-27 0 -91 3 -143 6 l-95 7
-2 53 -2 53 51 8 c68 11 77 33 11 25 -26 -3 -51 -10 -55 -16 -5 -7 -8 -4 -8 7
0 15 -11 17 -84 17 l-83 0 -7 53 c-3 28 -6 67 -6 85 0 29 -3 32 -27 30 -16 -2
-723 -5 -1573 -8z m1460 -207 c0 -27 3 -65 7 -86 l6 -38 63 7 c41 4 69 2 77
-4 7 -6 40 -12 72 -14 l60 -3 3 -67 3 -67 82 -3 82 -3 3 -82 3 -83 74 0 75 0
0 -140 0 -140 25 -6 c14 -3 45 -3 69 0 61 9 69 -3 60 -99 l-7 -76 -72 3 -72 3
-6 -230 c-4 -126 -10 -242 -14 -257 -8 -27 -9 -27 -38 -12 -16 8 -43 14 -60
12 -29 -3 -30 -5 -32 -58 -2 -30 -6 -70 -9 -89 l-5 -33 -68 6 -68 7 -7 -108
c-3 -59 -9 -163 -12 -230 -4 -68 -10 -123 -15 -123 -5 0 -9 6 -9 14 0 19 -80
10 -97 -11 -13 -17 -24 -146 -26 -318 l-2 -120 158 2 157 1 0 -80 0 -81 74 6
73 5 6 -126 c7 -156 -6 -839 -16 -849 -4 -4 -27 -6 -50 -4 l-42 2 -33 -69
c-17 -38 -32 -78 -32 -90 0 -13 -6 -22 -15 -22 -8 0 -15 -4 -15 -10 0 -19 -17
-10 -30 18 -7 15 -13 30 -12 34 1 3 -6 5 -16 4 -33 -5 -43 -50 -48 -223 -7
-229 -1 -211 -82 -215 l-67 -3 -3 -76 -3 -76 -157 -9 c-107 -7 -151 -13 -137
-19 11 -5 27 -17 36 -27 9 -10 23 -18 30 -18 17 0 42 -37 34 -50 -4 -6 4 -10
16 -10 17 0 20 -3 12 -11 -8 -8 -254 -11 -890 -10 -842 1 -1003 3 -1043 16
-17 5 -18 10 -7 43 7 20 13 43 13 50 1 6 2 27 3 46 1 24 10 42 32 63 17 15 43
40 57 56 14 15 33 27 42 27 14 0 18 16 23 107 4 58 7 133 7 166 l0 60 213 -7
c116 -4 275 -11 352 -17 92 -6 167 -6 218 1 42 5 212 10 377 10 l300 1 0 85 0
85 73 -2 72 -2 3 322 c2 304 1 322 -15 317 -10 -3 -43 -6 -73 -8 l-55 -2 -3
161 c-3 185 -5 189 -74 174 -24 -6 -56 -7 -70 -3 -26 7 -26 7 -11 50 8 24 13
55 11 70 l-3 27 -641 3 c-353 1 -679 -1 -725 -5 l-84 -8 -9 -152 -9 -152 -71
-3 -71 -3 -6 -105 c-4 -58 -8 -242 -9 -410 -1 -168 -5 -316 -9 -329 l-6 -23
-14 26 c-19 35 -72 54 -91 31 -14 -17 -24 -160 -16 -218 l7 -47 58 0 c58 0 59
0 65 -32 3 -18 8 -94 12 -169 l7 -136 -174 -6 c-96 -4 -235 -7 -310 -7 l-137
0 2 -72 1 -73 -152 -2 -153 -3 0 2165 0 2165 70 0 69 0 3 78 3 77 1370 5 c754
3 1396 6 1428 8 l57 2 0 -47z m-464 -3224 c-3 -17 -6 -125 -6 -238 l0 -207
-192 -1 c-106 0 -281 -1 -388 -3 -107 -2 -246 -2 -307 1 l-113 4 0 238 0 237
506 0 507 0 -7 -31z"/>
<path d="M4227 7003 c-4 -3 -7 -81 -7 -172 0 -91 -3 -196 -6 -232 -6 -60 -8
-65 -23 -52 -44 39 -96 73 -105 70 -23 -8 -14 -752 9 -775 3 -3 22 2 42 9 26
10 39 22 41 37 2 12 7 22 12 22 5 0 11 10 13 23 2 12 5 -28 6 -90 1 -107 22
-238 41 -257 5 -5 32 -12 59 -16 l49 -6 6 35 c3 20 6 50 6 67 l0 30 88 -3 c48
-2 132 -8 187 -14 55 -6 264 -14 466 -18 305 -7 370 -11 395 -24 57 -31 79
-39 119 -40 l40 -2 3 70 3 70 79 -4 80 -3 0 82 0 82 75 -4 75 -3 0 327 0 328
-74 0 -73 0 -7 46 c-3 26 -6 62 -6 80 l0 33 -70 3 -71 3 -3 95 c-2 52 -4 121
-5 153 l-1 57 -718 0 c-395 0 -722 -3 -725 -7z m1297 -622 c17 -1 18 -7 13
-71 l-6 -70 70 0 69 0 1 -47 c3 -84 -3 -308 -8 -313 -3 -3 -32 -7 -66 -10
l-62 -5 -3 -44 -3 -44 -97 7 c-53 4 -207 14 -342 22 -135 8 -282 18 -327 21
l-83 6 0 278 0 279 413 -4 c226 -2 421 -5 431 -5z"/>
<path d="M4944 6248 c-6 -7 -16 -25 -23 -39 -7 -15 -24 -32 -37 -38 -22 -10
-24 -16 -24 -78 1 -62 2 -66 15 -49 14 19 15 19 15 -8 0 -18 4 -25 12 -20 7 5
9 2 5 -8 -3 -10 -1 -15 9 -14 28 4 34 22 36 109 l3 88 40 -3 40 -3 3 -102 c3
-98 2 -103 -18 -103 -11 0 -20 -5 -20 -10 0 -6 -10 -15 -22 -20 l-23 -9 23 0
c13 -1 30 -8 38 -16 18 -18 45 -19 114 -4 55 12 61 23 36 71 -8 14 -17 55 -21
90 -3 34 -11 76 -17 91 -6 15 -8 30 -5 34 11 11 82 4 119 -11 50 -21 50 -21
46 22 l-3 37 -166 3 c-126 2 -168 -1 -175 -10z"/>
<path d="M5303 6160 c-16 -6 -23 -18 -23 -35 0 -27 18 -33 39 -12 11 10 12 7
9 -18 -3 -16 -8 -37 -12 -46 -5 -11 1 -22 20 -33 37 -25 49 -9 49 65 0 49 -4
64 -20 75 -21 16 -31 16 -62 4z"/>
<path d="M5050 4291 c0 -19 29 -28 98 -28 51 -1 72 3 72 12 0 7 -17 15 -37 19
-56 9 -133 7 -133 -3z"/>
<path d="M4983 4283 c-7 -2 -13 -11 -13 -18 0 -16 34 -9 51 11 9 11 8 14 -7
13 -11 0 -25 -3 -31 -6z"/>
<path d="M5280 4208 c0 -24 -3 -59 -6 -79 l-6 -37 43 -4 c25 -3 47 0 51 6 4 6
8 37 8 69 0 57 -1 58 -35 73 -50 21 -55 18 -55 -28z"/>
<path d="M5150 4204 c-11 -14 -14 -33 -10 -68 4 -42 7 -47 18 -33 8 9 12 35
10 67 -3 49 -4 51 -18 34z"/>
<path d="M4949 4184 c-8 -10 -26 -25 -41 -33 -24 -12 -28 -20 -28 -59 0 -43 1
-44 28 -39 70 14 67 16 64 -30 l-4 -43 40 2 c21 0 44 -2 50 -5 5 -4 22 -3 37
3 22 8 25 13 15 25 -6 8 -9 19 -5 25 4 6 -10 10 -40 10 -74 0 -85 11 -82 76 2
31 -1 62 -8 71 -11 14 -13 14 -26 -3z"/>
<path d="M5161 4018 c-1 -20 4 -28 15 -28 12 0 14 4 7 13 -6 6 -13 19 -16 27
-3 9 -6 3 -6 -12z"/>
<path d="M342 7198 c1 -310 -2 -578 -7 -597 -7 -31 -6 -33 11 -25 11 5 423 11
921 14 496 3 904 8 907 11 7 7 15 1080 8 1127 l-5 32 -918 0 -918 0 1 -562z
m637 473 c8 -5 11 -16 8 -24 -3 -8 3 -21 13 -30 16 -13 63 -17 273 -23 l255
-7 5 -41 c7 -49 28 -66 84 -66 l43 0 0 -94 c0 -93 0 -94 -28 -105 -15 -6 -40
-28 -56 -48 -28 -34 -28 -37 -13 -62 9 -14 24 -27 34 -29 68 -11 64 -2 61
-120 l-3 -107 -53 3 -52 4 6 -56 c4 -31 5 -56 3 -57 -2 0 -147 -3 -321 -6
l-318 -5 0 151 0 151 -180 0 -180 0 -11 28 c-7 17 -9 102 -7 237 5 255 14 288
81 304 54 12 338 13 356 2z m-522 -683 c-3 -7 -5 -2 -5 12 0 14 2 19 5 13 2
-7 2 -19 0 -25z"/>
<path d="M1298 7412 c-71 -1 -128 -7 -128 -11 0 -14 160 -23 215 -12 27 5 51
9 52 8 0 -1 3 -22 5 -47 l3 -44 -44 -9 c-29 -6 -52 -5 -68 2 -33 15 -130 14
-136 -1 -4 -10 -8 -10 -15 0 -8 11 -10 11 -15 -1 -3 -9 -16 -18 -29 -20 -13
-3 52 -5 144 -4 91 1 169 5 173 9 10 10 -8 131 -20 132 -5 1 -67 0 -137 -2z"/>
<path d="M1106 7056 c-3 -32 -6 -70 -6 -82 l0 -24 191 0 191 0 -6 23 c-3 12
-6 45 -6 74 l0 52 -52 5 c-29 3 -110 7 -179 8 l-127 3 -6 -59z"/>
<path d="M2560 7659 c0 -78 1 -80 23 -77 15 2 21 9 19 21 -2 12 4 21 17 24 12
3 21 13 21 22 0 9 3 33 6 54 l7 37 -47 0 -46 0 0 -81z"/>
<path d="M2653 7455 c0 -27 2 -38 4 -22 2 15 2 37 0 50 -2 12 -4 0 -4 -28z"/>
<path d="M7635 7400 l7 -40 -65 0 c-74 0 -96 -14 -77 -50 6 -12 10 -23 8 -24
-2 -2 -37 -7 -78 -12 l-75 -9 -12 -60 c-7 -33 -12 -78 -10 -99 2 -35 6 -41 36
-51 37 -12 42 -18 66 -78 l15 -39 152 7 c94 5 156 12 160 19 14 19 3 41 -17
37 -11 -2 -60 -5 -110 -8 l-90 -5 -41 39 c-53 49 -64 71 -64 127 l0 46 51 0
51 0 -4 38 -3 37 63 1 c35 1 66 4 68 7 3 3 0 15 -6 27 -26 49 -17 53 150 56
211 4 258 -2 291 -37 14 -15 39 -29 55 -31 27 -3 29 -6 32 -50 3 -45 1 -48
-20 -48 -33 0 -48 -18 -48 -58 l0 -35 -54 7 c-43 5 -55 3 -60 -9 -3 -10 -20
-16 -48 -17 l-43 -1 44 -6 c50 -7 64 -25 29 -36 -13 -4 -26 -12 -30 -18 -8
-14 2 -38 13 -31 5 3 9 -2 9 -10 0 -13 -14 -16 -80 -16 -70 0 -81 -2 -91 -21
-8 -15 -8 -24 0 -32 18 -18 12 -27 -18 -27 -17 0 -33 -4 -36 -10 -3 -5 -30
-10 -59 -10 -29 0 -87 -3 -129 -6 l-77 -7 0 -33 0 -34 183 0 c117 0 187 4 194
11 6 6 8 23 3 45 l-8 34 64 0 c61 0 64 1 64 25 0 13 7 30 16 37 9 7 28 26 44
41 22 23 34 28 66 25 l39 -3 3 43 3 43 52 -2 52 -3 -3 38 c-3 28 2 43 17 57
36 34 22 119 -19 119 -25 0 -33 15 -21 39 9 16 7 20 -16 26 -14 3 -34 16 -44
29 -26 34 -122 46 -354 46 l-197 0 7 -40z"/>
<path d="M2652 7380 c0 -14 2 -19 5 -12 2 6 2 18 0 25 -3 6 -5 1 -5 -13z"/>
<path d="M7170 7390 c-9 -6 -4 -9 16 -12 21 -2 30 -9 32 -25 3 -17 10 -23 28
-23 27 0 30 8 12 33 -16 21 -71 38 -88 27z"/>
<path d="M9005 7370 c-11 -5 -44 -9 -73 -9 l-53 -1 3 -37 3 -38 173 -9 c136
-7 179 -6 198 4 40 22 28 37 -37 49 -34 6 -69 17 -78 25 -20 18 -109 29 -136
16z"/>
<path d="M7824 7274 c-22 -9 -3 -52 27 -63 16 -5 29 -16 29 -23 0 -10 12 -12
43 -10 51 5 53 7 62 60 l7 42 -79 -1 c-43 0 -83 -3 -89 -5z"/>
<path d="M8814 7269 c-17 -5 -39 -18 -50 -30 -18 -20 -18 -21 1 -35 10 -8 42
-14 72 -14 l53 0 0 33 c0 33 -15 58 -34 56 -6 0 -25 -5 -42 -10z"/>
<path d="M9315 7263 c-25 -6 -55 -32 -55 -48 0 -18 34 -25 128 -25 69 0 85 3
102 20 26 26 25 46 -2 54 -26 7 -143 6 -173 -1z"/>
<path d="M8648 7194 c-12 -12 -9 -51 5 -61 6 -6 40 -13 75 -17 l62 -7 0 28 c0
46 -14 56 -77 61 -32 2 -61 0 -65 -4z"/>
<path d="M9517 7183 c-25 -4 -28 -8 -25 -36 l3 -32 75 3 c77 2 90 9 90 50 0
20 -4 22 -57 21 -32 -1 -71 -4 -86 -6z"/>
<path d="M7822 7128 c-7 -7 -12 -22 -12 -33 0 -18 6 -21 35 -20 30 1 65 15 38
15 -6 0 -14 11 -17 25 -7 27 -25 32 -44 13z"/>
<path d="M8494 7107 c-3 -8 0 -25 5 -40 8 -20 19 -27 55 -32 54 -8 106 2 106
20 0 8 -4 25 -10 39 -9 25 -14 26 -80 26 -49 0 -72 -4 -76 -13z"/>
<path d="M9654 7106 c-3 -8 -4 -27 -2 -43 3 -28 4 -28 64 -25 l62 3 -2 -53 -1
-53 -75 -5 -75 -5 3 -37 c3 -33 1 -38 -23 -44 -15 -4 -49 -4 -76 -1 l-48 6 6
-45 6 -44 -69 0 c-59 0 -66 -2 -49 -14 11 -8 16 -19 12 -30 -8 -21 -82 -55
-119 -56 -20 0 -32 -8 -43 -30 -14 -27 -20 -30 -65 -30 -48 0 -49 -1 -52 -32
l-3 -33 -58 1 c-55 1 -58 0 -53 -20 9 -36 -8 -49 -58 -48 -38 2 -46 -1 -46
-16 0 -10 -7 -28 -16 -40 -14 -20 -15 -41 -9 -130 6 -98 5 -109 -13 -129 -19
-22 -56 -31 -65 -15 -2 4 -2 2 -1 -5 2 -7 -1 -15 -5 -18 -13 -8 -20 47 -14
107 3 33 1 63 -5 74 -10 17 -11 17 -12 2 0 -28 -85 -25 -100 2 -6 11 -8 20 -4
20 3 0 1 6 -5 13 -6 8 -8 17 -4 20 3 4 -15 7 -41 7 -33 0 -56 6 -73 20 -14 11
-40 20 -58 20 -29 0 -34 -5 -48 -42 -9 -24 -17 -61 -19 -83 -1 -22 -7 -43 -13
-47 -6 -5 -5 -11 3 -17 11 -6 9 -10 -7 -14 -12 -3 -21 -12 -21 -21 0 -9 -6
-13 -14 -10 -7 3 -21 -3 -31 -12 -14 -14 -24 -16 -63 -7 -26 6 -64 8 -86 6
-36 -5 -38 -4 -31 18 16 50 13 54 -45 57 -34 2 -58 9 -63 17 -4 8 -14 12 -21
9 -20 -8 -28 106 -18 244 9 122 17 136 61 125 l25 -6 -22 35 c-12 20 -22 45
-22 58 0 21 4 22 58 18 l57 -3 3 36 3 36 -48 6 c-26 3 -56 9 -65 12 -16 6 -18
1 -18 -44 l0 -52 -59 7 -59 6 -9 -48 c-4 -27 -8 -145 -8 -263 l0 -215 58 3 57
2 0 -33 c0 -46 14 -58 53 -47 37 10 45 5 29 -21 -17 -28 -16 -30 18 -30 38 0
110 -29 110 -44 0 -6 -9 -28 -20 -49 -12 -22 -20 -56 -20 -86 0 -58 -7 -81
-26 -81 -7 0 -16 -16 -20 -35 -7 -37 -12 -39 -76 -29 -28 5 -38 12 -38 25 0
21 -36 49 -62 49 -11 0 -23 11 -28 26 -6 14 -15 22 -21 19 -6 -4 -8 -13 -5
-20 2 -7 -1 -16 -9 -18 -8 -4 -15 5 -19 24 -7 35 -26 37 -66 7 -34 -24 -31
-35 16 -54 22 -9 34 -21 34 -33 0 -23 46 -41 106 -41 42 0 44 -1 44 -29 0 -40
-21 -54 -75 -49 -43 3 -45 2 -45 -24 0 -22 -6 -28 -32 -33 -18 -4 -52 -16 -76
-26 l-44 -19 -29 30 c-29 29 -29 29 -8 40 11 7 51 16 87 21 37 5 70 13 75 18
10 10 -14 68 -26 64 -4 -2 -27 -3 -53 -3 -42 0 -46 -2 -59 -34 -11 -27 -23
-36 -60 -46 -28 -8 -50 -9 -55 -4 -5 5 -12 53 -16 107 l-7 97 -43 0 -42 0 -7
-76 c-13 -138 9 -214 61 -214 8 0 14 -6 14 -12 0 -7 19 -29 43 -48 41 -35 43
-35 130 -34 89 2 137 16 137 40 0 7 22 20 48 28 79 27 92 40 92 96 l0 48 40
-10 c47 -12 86 7 92 43 2 15 14 26 35 33 40 13 117 100 127 141 4 17 12 47 17
68 l10 37 73 0 c78 0 86 -5 86 -55 0 -18 7 -24 38 -29 74 -13 280 -19 415 -11
l138 7 -6 39 -7 38 69 3 68 3 5 40 5 40 60 0 60 0 -3 39 -4 38 64 -3 c68 -4
69 -4 54 56 l-6 25 76 0 76 0 -7 46 -7 46 74 -3 73 -4 3 43 3 42 57 -2 57 -3
3 41 3 42 37 -9 c20 -4 39 -6 42 -3 3 3 6 136 7 295 l2 289 -70 0 c-71 0 -78
5 -59 40 15 27 -14 40 -90 40 -43 0 -62 -4 -66 -14z m-1054 -814 c0 -23 -4
-32 -12 -29 -7 2 -13 18 -13 35 0 18 -3 32 -7 32 -5 0 -8 5 -8 10 0 6 8 5 20
-2 14 -9 20 -24 20 -46z m923 31 c-7 -2 -19 -2 -25 0 -7 3 -2 5 12 5 14 0 19
-2 13 -5z m-1018 -283 c-3 -5 1 -10 9 -10 20 0 21 -16 2 -23 -8 -3 -17 1 -20
9 -9 23 -7 34 5 34 5 0 7 -4 4 -10z"/>
<path d="M8360 7012 c0 -36 23 -62 54 -62 13 0 38 -3 55 -6 l31 -6 0 46 c0 45
-1 46 -32 46 -18 0 -50 3 -70 6 -37 6 -38 6 -38 -24z"/>
<path d="M2560 6949 l0 -51 45 6 c42 7 45 6 45 -16 0 -40 12 -68 27 -68 12 0
14 -9 10 -40 -3 -22 -1 -40 4 -40 4 0 6 -7 3 -15 -4 -8 -1 -15 4 -15 6 0 13
25 16 55 3 30 9 80 12 110 3 36 2 55 -5 55 -6 0 -11 -7 -11 -15 0 -8 -4 -15
-9 -15 -13 0 -33 28 -27 38 3 5 2 22 -3 38 -8 29 -8 29 -15 -13 -9 -51 -26
-57 -26 -9 0 35 -13 46 -51 46 -16 0 -19 -7 -19 -51z"/>
<path d="M8247 6964 c-9 -9 -9 -56 1 -70 4 -6 33 -14 65 -18 l57 -7 0 34 c0
28 -5 36 -27 45 -42 16 -88 24 -96 16z"/>
<path d="M8144 6877 c-14 -37 0 -62 45 -76 49 -15 61 -8 61 41 0 32 -4 35 -58
44 -33 5 -43 3 -48 -9z"/>
<path d="M2682 6562 c-16 -34 -15 -53 2 -46 15 6 26 47 17 63 -3 5 -12 -2 -19
-17z"/>
<path d="M2560 6490 c0 -62 2 -70 27 -90 18 -14 30 -17 37 -10 16 16 34 12 41
-10 4 -13 15 -20 31 -20 24 0 25 2 22 53 l-3 52 -43 6 c-48 6 -59 14 -64 48
-2 14 -13 27 -25 32 -22 8 -23 7 -23 -61z"/>
<path d="M2793 6510 c-3 -17 -10 -33 -14 -36 -5 -3 -9 -25 -9 -50 0 -28 4 -43
10 -39 6 3 10 -1 10 -9 0 -9 -8 -16 -19 -16 -15 0 -21 -10 -26 -40 l-7 -40
-53 0 c-58 0 -69 -8 -71 -53 -1 -15 -10 -34 -20 -42 -18 -14 -18 -14 6 -15 14
0 48 3 77 6 51 7 52 7 55 43 3 34 5 36 44 39 l41 3 7 106 c9 157 8 173 -9 173
-9 0 -18 -12 -22 -30z m-90 -317 c-7 -2 -19 -2 -25 0 -7 3 -2 5 12 5 14 0 19
-2 13 -5z"/>
<path d="M8068 6428 c2 -46 8 -87 12 -91 4 -5 23 -4 41 0 33 9 34 10 42 78 4
38 5 75 3 82 -4 8 -24 13 -54 13 l-49 0 5 -82z"/>
<path d="M7722 6438 c3 -30 1 -33 -37 -39 -21 -4 -41 -12 -43 -18 -2 -6 -10
-11 -17 -11 -20 0 -25 -35 -25 -186 0 -181 9 -270 24 -249 10 14 15 12 41 -15
16 -16 34 -30 39 -30 14 0 76 75 76 91 0 6 -10 -3 -23 -22 -31 -47 -56 -48
-91 -3 -23 29 -28 45 -28 87 0 73 0 73 21 74 20 2 41 -34 41 -70 0 -12 4 -28
9 -36 18 -28 25 14 28 173 5 207 5 208 46 206 56 -3 65 0 71 24 11 46 -1 56
-70 56 l-64 0 2 -32z m-55 -283 c-4 -8 -14 -14 -24 -14 -17 1 -17 2 0 6 9 2
17 12 17 20 0 9 3 14 6 10 4 -3 4 -13 1 -22z"/>
<path d="M8233 6381 c-15 -49 -17 -151 -3 -151 6 0 10 4 10 9 0 6 15 11 32 13
29 3 33 7 41 46 7 33 4 51 -10 80 -26 53 -54 54 -70 3z"/>
<path d="M2537 6353 c-11 -11 -8 -101 4 -108 14 -10 19 -2 29 41 11 49 -10 91
-33 67z"/>
<path d="M9570 6108 c0 -41 -2 -44 -43 -60 -23 -10 -57 -18 -76 -18 l-34 0 6
-59 c3 -33 3 -62 0 -64 -2 -3 -18 -1 -34 3 l-29 9 0 -131 0 -130 39 7 40 7 3
-49 3 -48 40 0 40 0 -3 -37 c-3 -42 2 -45 54 -23 l36 15 -7 -30 c-13 -59 -1
-70 73 -70 104 0 110 4 105 54 -4 28 0 53 10 72 l16 29 1 -37 c0 -40 17 -49
50 -28 13 8 13 10 -1 10 -12 0 -18 17 -26 66 -11 75 -6 80 52 71 35 -6 35 -6
35 33 0 24 5 40 15 44 12 4 15 31 15 151 l0 145 -55 -6 -55 -7 0 39 c0 86 4
84 -141 84 l-129 0 0 -42z m148 -65 c8 -27 8 -39 0 -44 -6 -4 -1 -13 16 -24
14 -9 24 -21 21 -25 -7 -11 -60 42 -57 56 3 14 -26 39 -35 31 -3 -4 -2 -21 3
-39 8 -25 15 -33 34 -33 23 0 24 -3 21 -45 -4 -54 -6 -59 -39 -71 -40 -15 -78
-2 -92 32 -11 26 -14 28 -25 13 -17 -25 -26 -5 -33 72 -4 61 -4 64 17 64 12 0
24 -7 27 -15 9 -23 34 -18 35 8 1 12 2 27 4 32 1 6 3 13 3 18 1 4 21 7 45 7
42 0 44 -2 55 -37z m-182 -225 c-9 -43 -33 -68 -68 -68 -27 0 -28 2 -28 50 l0
50 51 0 52 0 -7 -32z m248 10 c-5 -8 -2 -9 9 -5 14 5 17 0 16 -31 -1 -33 -2
-34 -9 -12 -4 14 -8 19 -9 11 -1 -21 -15 -4 -18 24 -2 14 1 25 7 25 6 0 8 -5
4 -12z m-47 -100 c7 -6 13 -18 13 -28 0 -14 -13 -18 -67 -23 -140 -14 -161 -9
-149 36 5 20 12 22 98 24 53 1 98 -3 105 -9z m-251 -13 c-11 -8 -22 -12 -25
-9 -6 6 19 24 34 24 6 -1 1 -7 -9 -15z m174 -181 c0 -16 -9 -18 -29 -5 -7 5
-11 14 -7 19 9 15 36 4 36 -14z"/>
<path d="M150 5945 c-14 -8 -32 -14 -41 -15 -12 0 -19 -12 -23 -37 -7 -43 -21
-663 -15 -664 2 0 119 -4 259 -9 245 -8 1807 5 1878 16 23 4 32 10 32 24 0 11
10 30 22 42 22 22 23 31 30 291 3 147 9 284 13 305 6 36 5 37 -34 50 -32 9
-274 12 -1068 12 -872 -1 -1032 -3 -1053 -15z m2043 -115 c-1 -30 -2 -125 -2
-210 l0 -155 -48 3 c-29 2 -53 10 -62 20 -10 13 -15 14 -18 5 -6 -17 -123 -18
-123 -2 0 8 -4 8 -14 0 -9 -8 -54 -13 -113 -14 l-98 -2 -3 -27 c-2 -19 3 -30
20 -39 29 -16 320 -24 399 -11 l57 9 6 -40 c4 -22 3 -44 -1 -48 -13 -13 -953
-31 -968 -19 -9 7 -59 9 -152 4 -76 -3 -312 -7 -525 -8 l-388 -1 0 46 0 47
735 0 c404 1 740 4 745 7 6 4 10 80 10 193 l0 187 -412 -2 c-227 -2 -549 -3
-715 -3 l-303 0 0 -47 0 -46 150 6 c142 5 151 4 161 -14 6 -11 9 -28 7 -37 -3
-14 -21 -16 -156 -14 l-152 2 0 -27 c0 -27 3 -28 48 -29 26 0 327 -5 670 -9
l622 -8 0 -33 0 -32 -107 -7 c-94 -7 -1293 2 -1301 10 -1 1 -3 70 -3 152 -1
146 -1 152 26 197 l27 46 951 3 c524 1 970 2 992 2 l40 -1 -2 -54z m-775 -174
c4 -43 -7 -56 -48 -56 -34 0 -50 17 -50 55 0 41 7 47 55 43 39 -3 40 -4 43
-42z m140 2 c3 -33 0 -38 -22 -44 -44 -11 -61 -2 -64 35 -4 39 10 52 53 49 27
-3 30 -7 33 -40z m-884 26 c10 -4 16 -18 16 -35 0 -28 -2 -29 -49 -29 -42 0
-51 3 -57 22 -11 36 42 61 90 42z m151 -34 c0 -34 -1 -35 -40 -35 -37 0 -40 2
-43 29 -4 34 12 47 53 44 27 -3 30 -6 30 -38z m150 0 c0 -35 0 -35 -45 -35
-39 0 -45 3 -48 23 -6 43 4 53 50 50 42 -3 43 -4 43 -38z m131 32 c17 -11 22
-35 12 -54 -6 -13 -21 -18 -48 -18 -39 0 -40 1 -40 33 0 19 3 37 7 40 9 9 55
9 69 -1z m152 -34 l3 -38 -39 0 c-41 0 -52 11 -52 50 0 22 15 30 55 27 27 -2
30 -6 33 -39z"/>
<path d="M1793 5768 c-2 -5 -24 -8 -47 -8 -41 0 -44 -2 -50 -31 -13 -68 -12
-69 58 -69 36 0 68 5 71 10 3 6 26 10 51 10 48 0 45 5 48 -85 1 -37 5 -45 24
-45 4 0 8 28 10 62 2 34 6 66 9 71 3 4 34 7 70 5 54 -2 67 1 79 16 9 13 10 24
4 36 -5 10 -6 21 -2 25 4 5 -1 5 -10 2 -10 -4 -18 -3 -18 1 0 9 -291 9 -297 0z"/>
<path d="M2451 5881 c-6 -10 -24 -24 -40 -31 -36 -14 -47 -45 -56 -145 -7 -80
8 -232 24 -248 6 -6 27 -10 46 -9 l35 3 -6 -41 -7 -40 131 0 130 0 7 43 c12
76 10 75 67 70 l51 -4 -7 62 c-3 34 -6 111 -6 170 l0 109 -50 0 -50 0 0 40 0
40 -130 0 c-116 0 -130 -2 -139 -19z m254 -193 c0 -71 -3 -128 -7 -128 -4 0
-10 -20 -14 -45 l-6 -45 -77 0 c-42 0 -86 -3 -97 -6 -18 -5 -22 0 -28 31 -5
27 -11 35 -22 31 -12 -5 -14 15 -12 136 4 168 -8 157 158 155 l105 -2 0 -127z"/>
<path d="M8577 5703 c3 -21 8 -40 10 -43 7 -8 161 -13 197 -6 29 6 35 12 44
46 l10 40 -133 0 -134 0 6 -37z"/>
<path d="M8447 5652 c-3 -4 -3 -19 0 -33 5 -28 32 -39 94 -39 26 0 29 3 29 34
0 26 -5 35 -22 40 -32 8 -96 7 -101 -2z"/>
<path d="M8830 5631 c0 -34 14 -41 81 -41 32 0 49 4 49 13 0 6 3 22 6 35 6 21
4 22 -65 22 l-71 0 0 -29z"/>
<path d="M8337 5573 c-2 -5 -7 -20 -11 -35 -6 -26 -10 -28 -60 -28 -57 0 -69
-10 -59 -48 4 -15 16 -21 56 -25 65 -6 75 -2 79 31 3 26 5 27 56 24 l52 -3 0
45 0 46 -54 0 c-30 0 -57 -3 -59 -7z"/>
<path d="M8950 5568 c0 -7 -3 -23 -6 -36 -7 -23 -5 -23 65 -21 39 1 74 0 77
-4 3 -3 -2 -19 -10 -36 l-16 -30 77 -3 78 -3 -3 -37 -4 -38 76 0 c72 0 77 2
88 25 6 14 9 28 5 31 -3 3 -35 9 -71 11 -69 6 -78 14 -51 49 8 10 15 23 15 27
0 5 -36 7 -80 6 -44 -1 -83 1 -86 4 -4 3 -2 20 4 36 l11 31 -85 0 c-60 0 -84
-3 -84 -12z"/>
<path d="M8070 5427 c0 -9 4 -27 10 -41 9 -25 14 -26 80 -26 61 0 70 2 70 18
0 33 -35 53 -99 59 -51 5 -61 3 -61 -10z"/>
<path d="M7306 5414 c-9 -8 -16 -17 -16 -18 0 -2 34 -2 75 -1 55 1 76 -2 80
-13 8 -22 6 -34 -5 -27 -6 4 -10 -6 -10 -23 0 -17 6 -32 15 -36 17 -6 21 -56
5 -56 -22 0 -8 -28 21 -40 43 -18 53 -3 29 45 -11 22 -20 50 -20 62 0 13 -7
39 -14 58 -8 19 -12 35 -9 35 3 0 0 7 -7 15 -18 21 -123 21 -144 -1z"/>
<path d="M7237 5303 c3 -50 2 -64 -6 -53 -8 12 -11 8 -12 -20 -2 -33 -2 -32
-9 10 l-7 45 -1 -52 c-2 -42 2 -54 17 -62 29 -16 64 21 51 55 -14 37 -12 87 5
110 21 28 18 34 -14 34 l-29 0 5 -67z"/>
<path d="M8600 5321 l0 -49 -45 10 c-52 11 -75 0 -75 -37 0 -31 -18 -43 -70
-47 l-45 -3 -11 -70 c-6 -38 -16 -71 -23 -73 -27 -9 -8 -31 32 -37 55 -9 59
-12 45 -35 -16 -26 -9 -30 54 -37 52 -5 55 -4 81 27 38 45 35 60 -12 60 -22 0
-42 4 -46 9 -4 8 13 149 20 159 1 1 18 -5 38 -13 48 -20 47 -20 47 20 0 58 22
71 118 67 l82 -4 0 -32 c0 -17 -5 -37 -12 -44 -13 -13 -9 -15 45 -12 33 1 38
-1 34 -17 -3 -10 -9 -44 -12 -75 -4 -34 -13 -59 -21 -62 -9 -4 -14 -22 -14
-55 l0 -50 -142 -3 -143 -3 0 -30 c0 -29 3 -30 55 -39 83 -13 231 -10 241 5 6
10 11 10 22 0 20 -16 31 1 23 35 -6 23 -4 24 45 24 l51 0 -4 45 -3 44 40 3 40
3 5 98 c4 68 2 97 -6 97 -6 0 -17 7 -24 15 -7 8 -23 15 -35 15 -23 0 -35 17
-35 51 0 24 -25 35 -44 20 -17 -14 -26 -4 -26 29 l0 27 -104 -5 c-61 -3 -117
0 -135 6 l-31 11 0 -48z"/>
<path d="M9347 5343 c-2 -5 -7 -20 -11 -35 l-6 -28 80 0 c73 0 97 -9 70 -25
-5 -3 -10 -14 -10 -24 0 -15 14 -19 83 -27 l82 -9 -2 -32 -3 -31 65 -7 65 -7
0 -39 c0 -35 3 -39 26 -39 14 0 23 -4 19 -10 -3 -5 -44 -10 -91 -10 -46 0 -84
-3 -84 -6 0 -3 9 -18 20 -32 26 -33 18 -37 -82 -47 l-78 -7 15 -28 c18 -35 9
-40 -71 -40 l-55 0 16 -30 c19 -36 15 -38 -70 -42 -62 -3 -61 -2 -48 -49 4
-14 -6 -18 -57 -24 -44 -5 -63 -12 -66 -24 -11 -34 -21 -45 -55 -57 -54 -19
-232 -123 -250 -146 -14 -18 -30 -21 -147 -26 -96 -3 -132 -2 -132 7 0 6 -7
11 -15 11 -8 0 -15 4 -15 9 0 15 18 23 23 11 3 -6 4 -5 3 2 -3 18 -55 30 -103
24 l-43 -6 0 36 c0 22 -6 37 -15 40 -20 8 -45 -13 -45 -37 0 -11 -6 -19 -14
-19 -26 0 -46 12 -46 27 0 8 4 12 9 9 17 -11 21 27 6 50 -24 37 -55 52 -130
64 -43 7 -78 19 -91 31 -11 10 -28 19 -37 19 -20 0 -23 16 -4 23 24 8 -4 20
-58 25 -52 4 -72 20 -45 37 6 4 8 10 5 14 -10 17 -68 20 -139 10 -65 -10 -77
-9 -100 6 -28 19 -34 35 -12 35 8 0 17 7 20 16 4 10 15 14 33 12 14 -2 28 2
30 8 5 15 -115 26 -139 13 -21 -11 -25 -31 -4 -23 23 9 29 -25 34 -199 l4
-168 -38 3 -39 3 2 165 c1 91 3 199 5 240 l3 75 43 -1 42 -1 0 44 0 44 -52 -3
-53 -3 -3 -37 c-3 -37 -4 -38 -43 -38 l-39 0 0 -202 c0 -112 5 -240 11 -285
l12 -82 71 -3 71 -3 -3 -37 c-4 -41 -2 -42 91 -53 46 -5 57 -10 57 -24 0 -29
20 -39 95 -48 68 -8 70 -9 67 -35 -4 -34 8 -41 88 -47 59 -5 65 -8 62 -27 -4
-30 17 -43 94 -57 58 -10 69 -16 72 -34 4 -24 26 -32 92 -34 66 -2 85 -10 85
-39 0 -22 6 -26 50 -33 45 -7 52 -12 63 -39 l11 -31 127 6 c138 6 144 9 144
65 l0 34 73 -4 72 -3 1 43 c1 23 4 45 7 48 3 3 30 7 61 10 31 2 67 9 82 14 23
9 25 14 20 45 l-7 35 71 0 70 0 0 45 0 45 65 0 66 0 -3 38 -3 37 60 5 c76 6
88 14 80 50 -6 27 -4 29 37 34 24 3 63 7 88 9 l45 2 5 45 5 45 77 3 77 3 3
259 c2 143 2 265 0 270 -2 6 -16 10 -31 10 -54 0 -91 20 -112 61 -15 31 -25
39 -47 39 -15 0 -54 12 -87 25 -33 14 -72 25 -87 25 -29 0 -45 14 -28 25 22
14 10 42 -21 49 -44 8 -157 8 -162 -1z m-1469 -727 l2 -167 -62 7 c-94 10
-104 16 -117 70 -16 62 -5 71 50 39 24 -13 47 -25 50 -25 3 0 9 50 11 112 5
93 9 114 24 125 10 7 23 12 29 10 6 -2 11 -66 13 -171z m160 38 c3 -10 5 -48
4 -82 -1 -43 3 -71 13 -85 8 -12 15 -38 15 -58 0 -40 -7 -36 90 -55 l29 -5 3
108 3 108 28 3 c47 6 59 -13 55 -87 -1 -36 -1 -102 0 -146 l2 -81 33 4 c25 3
41 -3 65 -23 l32 -27 1 134 c1 73 1 136 0 141 0 4 6 7 14 7 8 0 15 -5 15 -11
0 -5 4 -8 9 -4 19 11 31 -73 31 -219 0 -137 -1 -148 -17 -141 -10 4 -38 16
-63 25 -25 10 -68 30 -94 44 -27 14 -57 26 -68 26 -10 0 -21 6 -24 13 -3 8
-47 29 -99 48 -72 26 -97 40 -110 62 -13 22 -23 27 -56 27 -53 0 -79 14 -72
40 6 22 35 33 77 28 24 -3 29 2 42 37 7 22 14 75 14 118 0 55 3 78 12 75 6 -2
14 -13 16 -24z m692 -450 c0 -179 13 -165 -126 -137 -93 18 -108 30 -98 81 l6
30 44 -15 c23 -8 53 -13 66 -11 22 3 23 8 26 85 2 71 0 85 -17 102 -19 19 -19
19 40 20 l59 0 0 -155z"/>
<path d="M7954 5330 c-11 -4 -28 -19 -36 -32 -9 -14 -30 -31 -47 -37 -18 -8
-31 -22 -33 -34 -3 -20 -10 -22 -71 -25 l-68 -3 3 -37 3 -37 74 -3 74 -3 -6
41 c-6 47 3 51 88 47 l50 -2 -3 33 c-2 29 0 32 27 32 15 0 49 3 74 6 l46 7
-20 28 c-18 26 -26 29 -77 28 -31 0 -66 -4 -78 -9z"/>
<path d="M7557 5281 c-3 -14 0 -21 9 -21 16 0 18 9 5 28 -6 10 -10 9 -14 -7z"/>
<path d="M7385 5165 c-5 -3 -32 -6 -60 -7 -42 -3 -50 -6 -50 -23 0 -18 8 -20
78 -23 76 -3 77 -2 77 22 0 18 -21 41 -33 35 -1 0 -6 -2 -12 -4z"/>
<path d="M297 5111 c-176 -5 -220 -9 -227 -21 -6 -8 -10 -137 -10 -288 l0
-272 41 6 41 7 -7 -53 -7 -52 38 6 c22 4 595 9 1274 12 679 2 1241 6 1248 9 7
2 12 21 12 43 0 54 31 82 92 82 l45 0 7 252 c4 175 3 255 -4 262 -12 12 -2155
18 -2543 7z m1152 -108 c-2 -69 -12 -88 -45 -86 -43 2 -1154 2 -1189 0 -30 -2
-30 -3 -27 -54 1 -29 9 -88 16 -130 9 -49 10 -82 4 -90 -14 -18 0 -21 112 -27
426 -23 562 -24 735 -7 95 9 160 10 240 3 71 -6 112 -6 116 0 4 5 9 -3 12 -19
3 -15 5 -29 4 -29 -1 -1 -291 -5 -643 -9 l-641 -7 -8 108 c-8 112 -9 360 -1
372 2 4 299 8 660 10 l656 4 -1 -39z m1177 14 c-3 -12 -6 -74 -7 -137 -1 -98
-3 -109 -11 -70 -5 25 -7 59 -4 77 3 24 0 33 -12 37 -9 2 -239 5 -509 5 l-493
1 1 -73 c0 -39 6 -108 13 -152 8 -44 12 -83 10 -87 -2 -3 9 -9 25 -13 32 -7
267 11 319 25 46 12 379 2 489 -16 50 -7 98 -11 107 -8 8 3 24 0 35 -6 18 -9
23 -8 31 12 8 20 9 19 9 -14 l1 -38 -147 -1 c-82 0 -329 -2 -551 -4 l-402 -5
2 244 3 243 549 1 548 1 -6 -22z m-1271 -147 c-3 -5 -24 -10 -46 -10 -21 0
-39 -4 -39 -10 0 -5 5 -10 11 -10 5 0 7 -4 4 -10 -3 -5 2 -10 12 -10 11 0 28
-7 39 -15 17 -13 15 -14 -33 -15 l-53 0 0 45 0 45 56 0 c34 0 53 -4 49 -10z
m1151 2 c-6 -9 -84 -8 -93 2 -4 3 17 6 46 6 29 0 50 -4 47 -8z m-1350 -29 c11
-44 1 -58 -44 -61 -45 -3 -47 -1 -36 56 6 28 10 31 41 29 26 -2 35 -7 39 -24z
m1139 -73 c0 -95 0 -95 -24 -92 -30 3 -32 5 -31 28 1 11 3 39 5 64 1 25 3 58
4 73 1 23 5 28 23 25 21 -3 22 -8 23 -98z m-1975 77 c0 -7 8 -28 19 -47 12
-24 17 -51 15 -84 -3 -61 -13 -71 -66 -67 -13 1 -15 6 -9 29 5 15 11 62 15
105 4 42 12 77 17 77 5 0 9 -6 9 -13z m1480 -8 c-11 -8 -12 -12 -2 -16 21 -8
13 -23 -13 -23 -20 0 -25 5 -25 25 0 21 5 25 28 25 22 0 24 -2 12 -11z m705
-79 l0 -85 -41 -3 c-58 -4 -66 10 -58 101 l7 74 46 -1 46 -1 0 -85z m-1075
-17 c0 -98 -13 -118 -24 -38 -5 29 -4 35 3 20 7 -15 10 -3 10 48 1 37 3 67 6
67 3 0 5 -44 5 -97z m-523 75 c-1 -41 3 -50 17 -39 11 10 15 8 20 -6 3 -10 4
-6 2 9 -2 15 1 25 5 22 5 -3 9 -25 9 -50 0 -37 -4 -46 -22 -53 -28 -11 -45 2
-51 37 -4 26 -4 26 -6 -3 -1 -22 -8 -33 -28 -42 -15 -7 -30 -13 -34 -13 -11 0
-18 54 -12 97 5 36 9 43 32 46 52 8 69 7 68 -5z m1087 -4 c9 -4 16 -18 16 -34
0 -42 -10 -60 -33 -60 -20 0 -21 0 -1 -15 18 -15 18 -15 -11 -13 -18 2 -29 8
-27 16 1 6 -2 12 -8 12 -11 0 -14 83 -3 93 8 9 46 9 67 1z m155 -38 c20 -42 4
-90 -32 -94 -25 -3 -27 -1 -27 37 0 50 16 94 33 89 6 -3 18 -17 26 -32z
m-1602 -6 c3 -45 -6 -60 -37 -60 -34 0 -36 3 -45 53 l-7 38 43 -3 c39 -3 44
-6 46 -28z m163 15 c0 -9 -6 -12 -17 -8 -15 5 -16 3 -5 -8 6 -7 12 -32 12 -56
0 -36 -3 -43 -19 -43 -32 0 -51 28 -51 74 0 51 4 56 47 56 22 0 33 -5 33 -15z
m626 -15 c8 0 14 -10 14 -24 0 -47 -10 -56 -56 -56 -44 0 -44 0 -44 35 0 28 5
38 23 45 12 5 28 7 35 4 8 -2 20 -4 28 -4z m74 0 c0 -5 -5 -10 -11 -10 -5 0
-7 5 -4 10 3 6 8 10 11 10 2 0 4 -4 4 -10z m381 -10 c16 0 17 -3 7 -27 -14
-32 -37 -55 -49 -47 -13 8 -11 68 3 82 8 8 14 9 16 2 2 -5 12 -10 23 -10z
m-653 -10 c15 0 22 -6 22 -20 0 -17 -7 -20 -45 -20 -42 0 -45 2 -45 26 0 22 3
25 23 20 12 -3 32 -6 45 -6z"/>
<path d="M141 4850 c1 -77 3 -88 10 -55 11 55 11 117 -1 135 -7 10 -9 -15 -9
-80z"/>
<path d="M9758 4289 l-3 -70 -34 30 c-45 41 -76 41 -90 0 -9 -27 -14 -30 -40
-24 -23 5 -32 2 -44 -16 -9 -12 -26 -27 -39 -33 -25 -13 -26 -27 -11 -126 l8
-54 105 -1 105 0 3 -26 c2 -15 27 -53 58 -87 53 -59 54 -61 54 -120 0 -34 -5
-64 -11 -68 -7 -4 -9 -21 -6 -41 5 -31 4 -33 -16 -27 -12 4 -26 13 -30 20 -10
18 -47 17 -71 -1 -19 -14 -18 -15 12 -15 38 0 50 -20 34 -55 -8 -17 -7 -27 3
-42 8 -10 15 -26 15 -35 0 -39 32 -96 56 -102 23 -6 24 -9 24 -110 0 -111 -2
-116 -55 -116 -28 0 -35 -29 -35 -146 0 -46 -3 -84 -7 -84 -4 0 -19 11 -33 25
-22 21 -40 27 -98 32 l-71 6 -3 96 -3 96 -50 1 -50 1 -8 41 -8 42 -64 0 c-71
0 -85 11 -85 69 0 17 -5 31 -11 31 -6 0 -42 9 -80 21 l-69 21 6 39 7 39 -73 0
-73 0 6 51 6 50 -42 -5 c-23 -3 -109 -8 -192 -11 -175 -7 -245 -18 -329 -50
-34 -13 -86 -31 -116 -40 -30 -9 -73 -25 -95 -36 -29 -14 -75 -21 -170 -26
l-130 -8 3 -35 c2 -19 5 -36 7 -38 2 -2 52 1 111 7 95 10 343 70 416 101 24
10 284 40 349 40 l39 0 0 -1664 c0 -1321 -3 -1666 -12 -1673 -7 -4 -218 -9
-469 -10 l-456 -3 -6 473 c-4 259 -4 968 -1 1575 l6 1102 -55 0 -54 0 1 -72
c0 -40 0 -135 -1 -210 -2 -110 -6 -138 -17 -138 -15 0 -30 -29 -20 -39 4 -3 9
0 11 7 3 6 8 12 12 12 13 0 17 -82 13 -288 l-2 -123 -152 6 c-120 5 -169 3
-228 -9 -298 -62 -367 -77 -465 -100 -60 -14 -131 -26 -157 -26 l-48 0 0 -45
0 -45 44 0 c52 0 187 25 214 39 47 25 583 115 596 100 9 -10 15 -2199 6 -2204
-18 -11 -774 -19 -767 -8 4 7 -8 6 -34 -1 -35 -9 -43 -8 -54 7 -10 14 -13 230
-13 1043 -1 565 -3 1028 -4 1029 -2 2 -22 6 -45 10 l-43 7 0 -1096 c0 -603 1
-1096 3 -1096 45 -5 2846 -11 2871 -6 l36 7 2 102 c1 56 3 83 5 60 4 -39 7
-43 32 -43 15 0 42 11 61 25 24 18 37 22 46 14 10 -8 15 -3 22 23 8 31 11 33
55 36 l47 3 -6 39 -6 39 61 -4 61 -3 0 86 c0 48 -3 198 -7 335 l-6 247 -26 0
c-30 0 -66 22 -81 50 -8 14 -7 36 4 76 16 61 44 99 82 108 22 6 24 12 24 62 0
63 -16 77 -59 53 -27 -15 -28 -18 -30 -82 -1 -29 -6 -39 -23 -46 -43 -16 -59
-45 -65 -118 -7 -82 2 -102 48 -117 l34 -11 -2 -125 c-1 -137 -10 -174 -43
-183 -24 -6 -36 13 -24 41 4 9 7 24 6 32 -1 10 0 11 4 3 8 -18 34 -16 34 1 0
19 -14 27 -50 28 -23 1 -29 5 -27 22 1 16 -4 22 -23 24 -24 3 -25 3 -5 -12 17
-13 18 -17 5 -26 -23 -15 -35 -6 -35 25 0 32 -20 43 -76 44 -45 1 -49 10 -49
107 l0 74 33 1 32 1 -32 9 -33 10 0 74 0 75 39 0 c46 0 141 44 141 66 0 7 9
14 19 14 21 0 31 19 31 55 0 36 -10 55 -29 55 -18 0 -41 -38 -41 -65 0 -11
-12 -15 -37 -15 -21 -1 -49 -7 -63 -15 -14 -8 -33 -14 -42 -15 -17 0 -18 18
-18 236 l0 235 48 -6 c26 -4 56 -13 68 -20 11 -7 31 -15 44 -17 28 -4 36 -32
44 -149 3 -41 8 -87 11 -104 3 -16 8 -40 11 -52 2 -12 12 -29 21 -39 16 -15
17 -15 24 2 15 39 9 101 -12 128 l-21 26 28 48 c21 34 29 42 32 29 2 -10 -1
-31 -7 -48 -9 -27 -7 -33 30 -72 38 -40 41 -41 52 -22 6 11 12 60 12 109 l0
89 -39 21 c-28 15 -43 31 -51 56 -8 24 -19 36 -33 38 -27 4 -28 17 -4 31 15 9
17 28 15 200 -2 188 -5 212 -39 245 -20 21 -12 43 18 48 16 2 24 12 29 36 4
18 16 43 27 55 11 12 17 28 15 35 -3 8 8 12 36 12 l41 0 -2 188 -3 187 -25 3
c-75 8 -70 -3 -70 153 0 155 0 155 74 195 l29 16 -5 177 c-4 114 -10 186 -18
201 -9 17 -11 54 -5 140 8 133 -6 190 -45 190 -15 0 -22 8 -27 30 -3 18 -20
42 -40 58 -18 15 -50 42 -69 60 -33 31 -38 32 -114 32 l-80 0 0 29 c0 24 5 30
29 34 16 4 38 16 49 28 19 19 29 21 111 18 86 -4 106 1 80 17 -8 5 -9 30 -5
80 l7 74 -25 0 c-24 0 -25 -3 -28 -71z m19 9 c-3 -8 -6 -5 -6 6 -1 11 2 17 5
13 3 -3 4 -12 1 -19z m56 -774 c-2 -7 9 -21 26 -33 27 -19 29 -24 19 -46 -16
-36 -33 -31 -48 15 -9 27 -19 40 -32 40 -24 0 -23 19 4 47 21 22 23 23 29 6 3
-10 4 -23 2 -29z m-145 -631 l52 -6 0 -219 c0 -199 2 -219 18 -225 17 -6 32
-22 32 -34 0 -4 -20 -12 -44 -18 -46 -11 -75 -34 -56 -46 20 -12 10 -25 -20
-25 -17 0 -39 -9 -50 -20 -24 -24 -65 -26 -74 -4 -8 21 -8 578 0 599 6 14 15
16 48 11 23 -4 65 -9 94 -13z m171 -200 c-3 -61 -2 -129 4 -155 6 -27 8 -51 4
-54 -3 -3 -19 -3 -36 1 -38 8 -40 14 -43 183 l-3 132 40 0 40 0 -6 -107z
m-123 -440 c7 -36 -4 -414 -12 -422 -2 -3 -18 10 -35 27 -56 57 -89 53 -92
-12 -2 -32 -5 -36 -29 -36 l-26 0 -1 165 c-1 205 1 216 43 212 25 -2 32 2 34
20 2 16 12 23 43 28 30 5 40 12 45 31 9 35 22 29 30 -13z m-52 -435 c7 -32 -2
-35 -49 -14 -31 14 -31 15 21 31 9 3 12 10 8 17 -5 9 -4 10 3 3 6 -5 13 -22
17 -37z m96 -307 c0 -6 -4 -13 -10 -16 -5 -3 -10 1 -10 9 0 9 5 16 10 16 6 0
10 -4 10 -9z m-139 -757 c64 -20 72 -32 128 -167 8 -21 17 -28 34 -25 20 3 22
7 18 57 -2 36 1 56 10 62 22 13 29 0 29 -51 0 -59 -7 -80 -27 -80 -11 0 -13
-5 -8 -17 23 -53 16 -140 -10 -129 -8 3 -22 9 -30 12 -10 4 -18 -2 -24 -18 -5
-13 -16 -30 -25 -37 -9 -7 -16 -19 -16 -26 0 -8 -18 -15 -47 -18 -27 -2 -64
-9 -85 -15 -35 -9 -36 -9 -42 21 -3 16 -6 126 -6 243 l0 214 28 -6 c15 -3 48
-12 73 -20z m-1896 -532 c8 -34 -1 -42 -51 -42 -51 0 -55 9 -17 44 32 30 60
30 68 -2z m1208 -22 c5 -18 0 -20 -44 -20 -27 0 -49 5 -49 10 0 6 18 10 40 10
22 0 40 5 40 10 0 17 7 11 13 -10z"/>
<path d="M9830 4334 c0 -19 4 -25 15 -21 8 4 17 2 20 -4 9 -14 25 -1 25 21 0
18 -18 30 -46 30 -8 0 -14 -10 -14 -26z"/>
<path d="M718 4337 c-14 -7 -36 -21 -48 -32 -22 -19 -22 -19 -36 0 -13 17 -14
14 -16 -36 -3 -81 1 -122 12 -133 5 -5 10 -27 10 -47 0 -33 4 -38 31 -48 51
-18 87 -14 100 11 9 16 9 23 0 26 -18 6 -12 22 9 22 12 0 37 22 65 58 39 49
45 63 43 97 -3 36 -6 40 -33 45 -18 3 -34 14 -40 28 -11 25 -51 29 -97 9z m59
-28 c15 -15 6 -114 -15 -161 -17 -39 -32 -49 -32 -23 0 8 -9 23 -21 34 -13 12
-17 21 -10 26 6 3 11 33 11 65 0 47 3 59 18 63 30 8 38 7 49 -4z m-109 -94
c17 -37 15 -47 -10 -43 -18 2 -24 11 -26 36 -4 40 19 44 36 7z"/>
<path d="M1934 4328 c3 -13 6 -44 6 -70 0 -43 2 -47 28 -50 21 -2 27 -8 26
-25 0 -13 5 -23 12 -23 7 0 12 18 12 51 0 47 -1 49 -17 35 -26 -23 -37 -19
-35 12 1 15 -3 35 -7 44 -8 14 -1 18 46 23 71 9 61 25 -17 25 -58 0 -60 -1
-54 -22z"/>
<path d="M134 4308 l-50 -9 -12 -82 c-7 -46 -12 -97 -12 -114 l0 -30 158 0
157 -1 -2 -38 c-2 -22 -7 -40 -13 -42 -5 -2 -10 -34 -10 -70 0 -115 2 -112
-104 -112 -50 0 -108 3 -129 6 l-37 7 0 101 c0 161 -16 144 -24 -25 -7 -159
-4 -172 35 -162 21 6 21 4 19 -75 l-2 -53 37 7 37 7 -3 -257 c-4 -237 -3 -258
14 -267 24 -14 24 -124 0 -151 -15 -17 -15 -22 -3 -41 7 -12 16 -37 19 -56 l6
-35 60 3 c66 3 75 10 75 59 0 18 4 42 10 52 14 25 -4 111 -25 123 -15 8 -15
10 4 24 28 19 26 41 -4 53 -14 5 -25 17 -26 27 -1 10 -2 114 -3 230 l-1 213
43 0 42 0 0 70 0 70 46 0 46 0 -6 168 c-3 92 -9 203 -13 247 l-8 80 -37 -3
-36 -3 5 39 c5 39 5 39 -33 45 -53 9 -158 7 -220 -5z m24 -74 c20 -6 22 -12
22 -69 0 -56 -3 -64 -21 -70 -30 -10 -36 1 -42 78 -5 70 -3 72 41 61z m212
-70 l0 -65 -27 3 c-27 3 -28 6 -31 66 l-3 62 31 0 30 0 0 -66z m-73 -460 c-6
-54 -17 -64 -74 -64 -47 0 -48 1 -32 66 l11 44 50 0 51 0 -6 -46z m-2 -584
c-3 -5 -12 -10 -18 -10 -7 0 -6 4 3 10 19 12 23 12 15 0z m-7 -182 c-2 -14
-11 -24 -24 -26 -18 -3 -21 1 -17 22 7 34 46 37 41 4z"/>
<path d="M2360 4311 c-32 -5 -35 -9 -38 -44 -3 -30 -9 -40 -28 -47 l-25 -10 3
-230 c2 -158 7 -233 15 -241 9 -9 22 -8 57 4 53 18 49 24 46 -76 -1 -56 0 -58
22 -55 l23 3 0 -215 0 -215 -67 -5 c-36 -3 -70 -9 -75 -13 -4 -5 -9 -104 -11
-220 -3 -172 -1 -218 11 -242 8 -16 18 -38 21 -48 5 -15 15 -18 53 -16 l48 3
3 -42 3 -42 99 0 99 0 3 37 c2 30 8 38 28 43 19 4 26 13 28 37 3 28 7 32 35
35 l32 3 3 218 2 219 -28 -3 c-18 -2 -39 5 -56 19 -15 12 -43 24 -61 28 -46 8
-49 28 -40 240 l7 173 42 3 41 3 -3 70 -4 71 54 -1 c49 0 53 2 52 23 0 12 -1
85 -2 163 -1 90 -6 138 -12 134 -6 -4 -10 23 -10 74 l0 81 -35 0 -35 0 6 39
c5 34 4 39 -17 44 -30 8 -241 7 -289 -2z m48 -139 c2 -35 -2 -69 -8 -77 -8 -9
0 -14 36 -19 67 -9 137 -7 154 4 13 8 13 10 -1 10 -21 0 -29 20 -29 75 0 64 7
75 47 75 35 0 35 -1 29 -32 -4 -18 -9 -114 -13 -213 -3 -99 -6 -181 -7 -182
-5 -7 -269 -4 -276 3 -5 5 -10 66 -12 137 -3 127 -3 127 20 127 18 0 21 3 13
18 -5 9 -12 45 -16 80 l-7 63 33 -3 34 -3 3 -63z m116 -431 c4 -5 -3 -7 -14
-4 -10 3 -26 -2 -35 -10 -14 -15 -14 -18 2 -37 10 -11 28 -20 40 -20 13 0 23
-4 23 -9 0 -7 -100 -23 -108 -16 -1 1 5 25 14 53 15 46 20 52 45 52 15 0 30
-4 33 -9z m106 -709 c0 -55 -3 -147 -7 -206 -5 -96 -8 -106 -24 -101 -11 4
-22 -1 -28 -12 -6 -10 -11 -12 -11 -5 0 17 -62 15 -86 -3 -25 -19 -34 -19 -34
0 0 11 -12 15 -45 15 l-45 0 0 49 c0 28 -4 53 -10 56 -6 4 -10 67 -10 156 l0
149 150 0 150 0 0 -98z m39 -163 c-21 -13 -29 -11 -29 9 0 14 2 15 10 2 7 -12
10 -11 16 5 5 13 9 15 12 6 2 -7 -2 -17 -9 -22z m-194 -209 c3 -5 1 -10 -4
-10 -6 0 -11 5 -11 10 0 6 2 10 4 10 3 0 8 -4 11 -10z"/>
<path d="M9903 4292 c-26 -4 -31 -33 -8 -52 21 -18 45 -5 45 24 0 29 -6 33
-37 28z"/>
<path d="M1831 4272 c-1 -13 -6 -33 -13 -45 -7 -12 -11 -35 -9 -52 3 -33 24
-68 35 -58 3 4 13 -2 22 -13 14 -17 15 -14 9 46 -4 36 -10 67 -14 70 -4 3 -12
21 -18 40 -9 27 -11 30 -12 12z"/>
<path d="M2083 4181 c5 -65 4 -69 -21 -90 -39 -31 -87 -32 -114 0 -21 25 -45
24 -53 -1 -4 -12 -11 -17 -18 -13 -7 4 -6 -1 2 -10 7 -9 24 -17 37 -17 17 0
24 -6 24 -19 0 -16 9 -21 45 -27 82 -12 120 11 150 89 10 26 22 50 26 53 14 8
11 84 -3 88 -7 3 -28 7 -47 10 l-34 6 6 -69z"/>
<path d="M1124 4200 c-12 -4 -24 -15 -27 -23 -3 -8 -25 -17 -49 -21 -31 -5
-52 -17 -80 -45 -56 -59 -78 -111 -85 -201 l-6 -80 -98 0 -99 0 0 -40 c0 -27
-7 -47 -20 -60 -11 -11 -20 -29 -20 -40 0 -17 -7 -20 -43 -20 -29 0 -49 -6
-59 -17 -32 -38 -68 -117 -74 -162 -6 -43 7 -314 23 -468 l6 -63 36 0 c50 0
59 -9 63 -60 l3 -45 145 0 145 0 0 40 0 40 -135 3 -135 3 -18 57 c-9 31 -17
83 -17 115 0 43 -4 59 -16 64 -13 5 -15 28 -13 165 2 88 7 162 12 165 4 3 7
21 5 42 l-3 36 48 3 47 3 0 41 c0 40 1 40 30 35 26 -6 30 -4 30 16 0 12 3 31
6 42 5 19 14 20 307 20 166 0 437 2 602 6 165 3 301 5 302 4 1 0 -3 -20 -8
-44 -5 -24 -8 -46 -5 -48 3 -3 22 -1 43 4 36 8 38 11 38 48 0 37 -3 40 -29 43
-24 3 -27 7 -23 28 6 36 -17 44 -122 44 l-91 0 0 75 c0 71 -2 76 -25 87 -16 7
-25 19 -25 33 0 27 -25 51 -62 60 -21 5 -28 13 -28 31 0 29 -31 44 -91 44 -29
0 -41 5 -46 18 -4 9 -11 20 -17 24 -15 11 -296 9 -322 -2z m333 -107 c81 -6
82 -6 88 -35 5 -22 18 -35 51 -51 50 -24 57 -38 52 -118 l-3 -54 -342 -3 -343
-2 0 74 c0 81 7 94 58 115 22 9 28 17 25 32 -9 35 46 48 197 49 74 0 172 -3
217 -7z"/>
<path d="M7748 4133 c-32 -4 -38 -8 -43 -35 -4 -17 -15 -32 -24 -35 -14 -3
-18 -17 -19 -63 -1 -65 3 -72 34 -60 18 7 23 20 29 69 7 65 21 81 69 81 37 0
56 10 56 31 0 20 -12 21 -102 12z"/>
<path d="M9420 4101 c0 -45 -9 -52 -63 -45 l-50 7 5 -47 c3 -26 8 -49 11 -52
3 -3 19 2 36 10 16 9 39 16 51 16 18 0 20 6 20 65 0 36 -2 65 -5 65 -3 0 -5
-9 -5 -19z"/>
<path d="M7965 4100 c-4 -6 1 -18 11 -25 36 -27 48 -11 15 19 -13 12 -21 14
-26 6z"/>
<path d="M8012 4024 c-18 -12 -22 -25 -22 -63 0 -35 -4 -51 -16 -55 -34 -13
-52 -6 -63 24 -15 44 -19 37 -10 -17 18 -108 22 -160 10 -167 -6 -4 -11 -15
-11 -25 0 -14 -15 -20 -74 -29 -84 -15 -110 -29 -100 -56 5 -12 13 -16 28 -12
11 3 54 6 94 6 68 0 73 2 82 25 7 17 17 25 34 25 18 0 29 9 40 32 9 17 16 33
16 35 0 2 -17 0 -39 -3 l-38 -6 -7 42 c-8 52 1 64 58 79 39 9 45 15 51 43 4
18 12 39 19 47 8 11 8 15 -1 18 -7 3 -13 20 -13 39 0 38 -6 41 -38 18z"/>
<path d="M7543 3965 c0 -22 2 -30 4 -17 2 12 2 30 0 40 -3 9 -5 -1 -4 -23z"/>
<path d="M9223 3974 c-3 -10 -1 -30 4 -45 14 -36 1 -45 -31 -24 -23 15 -25 15
-35 -4 -6 -11 -11 -31 -11 -45 0 -25 -3 -26 -54 -26 -69 0 -86 -7 -86 -35 0
-26 29 -35 121 -35 l59 0 0 34 c0 32 3 35 33 38 28 3 32 7 32 32 1 25 6 31 33
38 24 7 32 14 32 32 0 12 -8 30 -18 39 -24 22 -71 22 -79 1z"/>
<path d="M7768 3903 c6 -2 18 -2 25 0 6 3 1 5 -13 5 -14 0 -19 -2 -12 -5z"/>
<path d="M8229 3870 c-4 -35 -4 -35 -64 -41 l-60 -6 62 -1 c66 -2 93 4 93 21
0 6 8 19 18 30 17 19 16 20 -10 14 -17 -5 -28 -3 -31 6 -2 6 -6 -4 -8 -23z"/>
<path d="M7615 3845 c22 -63 28 -75 35 -70 10 6 -3 66 -14 65 -5 -1 -13 4 -18
12 -7 9 -8 7 -3 -7z"/>
<path d="M8038 3777 c-3 -15 -1 -30 4 -33 13 -9 15 -3 8 31 l-6 30 -6 -28z"/>
<path d="M7776 3771 c-4 -7 -5 -15 -2 -18 9 -9 19 4 14 18 -4 11 -6 11 -12 0z"/>
<path d="M7856 3772 c-3 -5 6 -12 20 -15 15 -3 23 0 21 7 -5 14 -33 20 -41 8z"/>
<path d="M7718 3763 c-10 -2 -18 -11 -18 -20 0 -10 6 -13 16 -9 9 3 20 6 25 6
5 0 9 7 9 15 0 15 -2 16 -32 8z"/>
<path d="M7815 3760 c-3 -5 -1 -10 4 -10 6 0 11 5 11 10 0 6 -2 10 -4 10 -3 0
-8 -4 -11 -10z"/>
<path d="M9422 3701 c-8 -23 -9 -38 -2 -45 15 -15 22 -1 18 40 l-3 39 -13 -34z"/>
<path d="M1685 3663 c-16 -2 -37 -11 -47 -20 -9 -8 -25 -16 -35 -17 -14 -2
-19 -13 -21 -49 -3 -40 -7 -48 -28 -53 -13 -3 -35 -4 -49 -2 l-24 5 -3 -131
c-2 -72 -2 -133 0 -135 1 -3 16 3 31 12 39 23 41 22 41 -20 0 -67 8 -64 -268
-66 l-250 -2 2 -25 c1 -27 -19 -36 -59 -26 -24 6 -28 19 -41 133 l-6 51 43 -5
c24 -3 56 -14 71 -24 15 -10 32 -19 37 -19 7 0 11 37 10 98 l0 97 -86 0 -86 0
2 63 2 62 -70 0 -70 0 -3 -62 -3 -63 -34 -3 c-25 -3 -37 2 -48 17 -26 37 -50
27 -57 -25 -12 -90 -8 -135 13 -141 13 -3 20 -17 24 -44 6 -44 26 -69 56 -69
21 0 43 -30 39 -52 -2 -9 22 -15 82 -20 68 -6 88 -12 103 -29 35 -43 18 -69
-48 -69 -37 0 -44 -11 -36 -55 6 -30 6 -30 76 -30 l70 0 -2 46 -3 46 88 9 c99
10 425 10 466 0 26 -6 26 -8 20 -57 l-7 -50 64 3 64 3 3 49 3 48 -56 -7 c-62
-7 -59 -12 -40 51 7 25 26 30 162 40 90 6 93 7 111 38 10 17 32 38 48 46 57
29 74 56 75 118 1 86 9 255 12 258 1 1 16 5 33 8 l32 7 4 -188 c4 -198 3 -214
-15 -208 -7 2 -27 6 -44 9 l-33 6 0 -55 c0 -29 -5 -57 -11 -61 -7 -4 -9 -23
-5 -50 3 -25 2 -44 -4 -44 -5 0 -10 14 -12 32 -3 36 -28 52 -28 18 0 -12 -4
-18 -10 -15 -14 8 -13 -28 2 -60 6 -14 20 -26 32 -26 41 -3 -100 -17 -181 -18
-79 -1 -83 -2 -89 -26 -13 -53 -7 -55 155 -55 123 0 150 3 155 15 3 8 15 15
26 15 14 0 20 7 20 23 0 41 15 52 68 49 l49 -2 6 107 c4 58 7 202 7 320 l0
213 -35 0 c-32 0 -35 2 -29 24 7 29 1 33 -56 37 l-45 4 -5 -60 c-4 -52 -8 -60
-27 -63 -16 -2 -26 5 -37 25 -8 15 -31 43 -50 61 -33 31 -42 34 -108 37 -40 2
-86 1 -103 -2z m105 -128 c0 -61 -10 -72 -52 -56 -19 7 -27 18 -30 45 -6 49 6
66 47 66 l35 0 0 -55z m-132 -84 c9 -5 12 -24 10 -52 l-3 -44 -40 0 c-37 0
-40 2 -49 39 -7 33 -6 41 10 53 20 15 53 17 72 4z m277 -56 l0 -50 -40 0 c-39
0 -40 1 -43 39 -5 58 2 68 45 64 l38 -3 0 -50z m-132 -112 c5 -17 7 -43 3 -57
-5 -21 -13 -26 -36 -26 -37 0 -60 32 -60 83 l0 38 42 -3 c38 -3 43 -6 51 -35z
m-163 -118 c18 -33 9 -39 -53 -40 -43 0 -52 3 -55 19 -10 47 84 65 108 21z"/>
<path d="M9480 3640 c0 -24 15 -27 24 -4 9 22 8 24 -9 24 -8 0 -15 -9 -15 -20z"/>
<path d="M765 3640 c3 -5 12 -7 20 -3 21 7 19 13 -6 13 -11 0 -18 -4 -14 -10z"/>
<path d="M1117 3623 c-21 -21 15 -53 60 -53 33 0 93 26 93 41 0 16 -138 28
-153 12z"/>
<path d="M9523 3555 c-26 -39 -32 -72 -7 -37 10 14 25 22 45 22 30 0 38 17 17
38 -19 19 -31 14 -55 -23z"/>
<path d="M9666 3555 c5 -21 -1 -33 -31 -62 -23 -23 -33 -39 -26 -41 7 -2 35
20 62 49 44 48 47 53 31 65 -28 22 -43 17 -36 -11z"/>
<path d="M9520 3415 c0 -24 12 -31 60 -36 47 -4 50 -1 32 31 -14 25 -23 30
-54 30 -34 0 -38 -3 -38 -25z"/>
<path d="M8588 3350 c-58 -10 -117 -26 -130 -34 -22 -15 -266 -62 -387 -75
l-54 -6 1 -350 c1 -192 1 -404 1 -470 -1 -66 -2 -482 -3 -924 l-1 -803 295 1
c162 1 320 4 351 7 l56 6 -5 97 c-2 53 -8 100 -13 105 -6 6 -9 5 -9 -3 0 -8
-5 -7 -17 4 -14 15 -30 16 -107 11 -133 -10 -127 -6 -124 -84 l3 -67 -53 -3
c-30 -2 -59 2 -66 7 -9 7 -16 7 -23 0 -6 -6 -28 -9 -49 -7 -34 3 -39 6 -42 31
-4 33 -22 36 -22 3 0 -26 -16 -36 -61 -36 -30 0 -30 0 -27 53 3 47 5 52 28 55
82 9 91 32 12 32 -26 0 -56 7 -66 15 -17 13 -21 12 -32 -3 -12 -15 -13 -14
-14 10 0 23 5 28 33 33 44 7 440 25 560 25 l98 0 -7 93 c-4 50 -8 94 -11 96
-5 7 -232 3 -243 -4 -6 -4 -10 -33 -10 -66 l0 -59 -64 0 c-53 0 -65 3 -69 17
-4 16 -5 16 -6 2 -1 -12 -13 -18 -41 -21 -23 -2 -46 0 -52 3 -7 4 -20 3 -30
-2 -11 -6 -36 -9 -56 -7 l-37 3 -3 52 -3 52 115 -6 c104 -5 116 -4 116 10 0
13 -10 17 -37 18 -21 1 -49 3 -63 4 -14 1 -60 4 -102 5 -43 2 -78 5 -78 7 0 3
6 11 14 19 8 7 16 19 18 25 2 7 99 14 293 20 160 5 305 12 322 15 l33 6 -6
102 c-4 55 -9 103 -11 106 -8 8 -237 -1 -247 -10 -4 -4 -8 -38 -7 -74 l1 -66
-65 0 c-64 0 -65 0 -66 28 l-1 27 -9 -26 c-7 -20 -19 -28 -46 -32 -20 -4 -42
-2 -49 4 -8 7 -14 7 -19 -1 -3 -5 -28 -10 -56 -10 l-49 0 0 68 c0 46 -5 75
-16 90 -9 13 -13 26 -10 29 6 6 383 39 559 49 l99 6 -6 41 c-3 23 -5 82 -5
130 l-1 88 -132 -3 -133 -3 -3 -103 -3 -103 -52 3 -52 3 -3 50 c-3 48 -15 75
-28 63 -3 -3 0 -15 7 -25 18 -30 4 -89 -24 -97 -38 -10 -65 -7 -71 10 -5 14
-8 14 -28 0 -12 -9 -40 -16 -61 -16 l-38 0 3 58 3 57 63 0 c34 0 62 3 62 6 0
8 -52 19 -89 19 -18 0 -22 3 -13 9 11 7 11 9 -1 14 -21 8 -49 70 -45 99 3 26
6 26 457 43 l194 8 -7 131 c-5 91 -11 135 -21 145 -11 12 -32 12 -119 3 -58
-5 -110 -13 -116 -17 -6 -3 -10 -44 -10 -96 l0 -89 -60 0 -60 0 0 71 c0 52 -3
70 -12 66 -9 -2 -12 -23 -10 -69 3 -61 2 -66 -20 -71 -39 -11 -67 -8 -76 9 -8
14 -10 14 -21 0 -9 -10 -30 -16 -57 -16 l-44 0 0 50 c0 45 2 50 25 56 14 3 40
4 57 2 31 -5 58 9 58 30 0 13 -35 22 -83 22 -54 0 -77 15 -77 50 0 17 2 30 4
30 23 0 293 32 331 39 28 5 110 12 183 16 l132 8 0 46 c0 25 -3 84 -7 130 l-6
84 -119 -5 c-74 -3 -124 -10 -131 -17 -7 -8 -12 -44 -12 -94 l0 -82 -52 -3
-53 -3 0 59 c0 45 -4 61 -16 66 -14 5 -15 -2 -9 -58 6 -58 5 -65 -13 -75 -31
-16 -70 -13 -81 7 -9 16 -11 15 -26 -5 -13 -18 -26 -23 -61 -23 l-45 0 3 58 3
57 63 3 c53 3 62 6 62 22 0 26 -16 34 -84 40 -54 5 -60 7 -69 33 -5 16 -7 30
-5 32 10 10 577 75 653 75 3 0 5 54 5 119 l0 120 -112 -5 c-170 -8 -158 0
-158 -93 l0 -79 -56 -4 c-32 -2 -58 1 -60 7 -1 6 -6 28 -10 50 l-8 40 -4 -45
c-4 -58 -17 -72 -61 -68 l-36 3 0 55 c0 30 -4 61 -8 68 -9 13 -6 13 66 18 21
1 41 5 45 9 4 4 -46 5 -111 3 -119 -3 -136 2 -137 37 0 14 100 31 295 50 88 8
204 20 258 26 l98 11 -2 122 c-1 66 -4 135 -7 151 -6 30 -6 30 -12 5 -5 -23
-11 -25 -70 -27 -92 -2 -139 -11 -164 -31 -21 -15 -23 -23 -18 -83 l4 -66 -32
-7 c-18 -3 -48 -6 -66 -6 l-34 0 0 60 c0 64 -2 62 70 73 14 3 -32 5 -102 6
-75 0 -129 -3 -133 -9 -3 -6 4 -10 18 -10 20 0 23 -4 19 -25 -5 -30 -4 -30 37
-9 19 9 42 13 56 10 22 -6 25 -12 25 -49 0 -24 -5 -48 -12 -55 -15 -15 -75
-16 -84 -1 -5 8 -12 5 -23 -8 -9 -12 -32 -24 -52 -27 -34 -6 -37 -4 -42 21 -6
33 0 95 11 102 14 11 12 31 -4 31 -11 0 -14 8 -12 33 3 31 5 32 58 39 306 36
336 41 462 80 67 20 98 34 100 46 5 22 -2 62 -11 61 -3 -1 -54 -10 -113 -19z
m32 -260 c0 -56 -2 -61 -27 -71 -51 -19 -68 -9 -71 43 -4 67 10 88 58 88 l40
0 0 -60z m8 -326 c3 -54 -8 -67 -60 -68 l-43 -1 1 44 c1 52 23 73 69 68 27 -3
30 -7 33 -43z m-430 -30 c3 -75 -5 -87 -60 -88 l-43 -1 -3 42 c-4 53 11 83 42
83 13 0 27 7 30 16 13 34 31 6 34 -52z m406 -260 c11 -4 16 -19 16 -49 0 -48
-12 -62 -55 -67 -29 -3 -30 -2 -33 44 -3 39 1 49 20 62 25 18 29 19 52 10z
m43 -66 c-3 -8 -6 -5 -6 6 -1 11 2 17 5 13 3 -3 4 -12 1 -19z m-31 -340 c-4
-35 -8 -64 -9 -65 -1 0 -19 -4 -39 -8 l-38 -7 0 64 c0 36 3 68 7 71 3 4 24 7
46 7 l40 0 -7 -62z m31 40 c-3 -8 -6 -5 -6 6 -1 11 2 17 5 13 3 -3 4 -12 1
-19z m-25 -408 c-4 -56 -22 -74 -70 -68 -25 3 -27 6 -25 47 3 66 7 71 55 71
l43 0 -3 -50z m-21 -290 c15 0 19 -7 19 -34 0 -38 -12 -46 -66 -46 -31 0 -34
2 -34 31 0 34 25 62 48 54 8 -3 22 -5 33 -5z m9 -272 c17 -11 22 -10 31 2 9
13 10 13 6 -2 -3 -9 -1 -19 6 -21 9 -3 9 -8 -2 -20 -7 -9 -18 -14 -25 -10 -6
3 -8 3 -4 -2 15 -17 -16 -35 -58 -35 l-44 0 0 38 c0 21 5 43 12 50 16 16 53
15 78 0z m-16 -278 c21 -8 26 -16 26 -44 0 -38 -12 -46 -65 -46 -37 0 -52 23
-39 63 11 37 33 45 78 27z m103 -57 c-3 -10 -5 -2 -5 17 0 19 2 27 5 18 2 -10
2 -26 0 -35z"/>
<path d="M1955 3100 c-3 -5 -1 -10 4 -10 6 0 11 5 11 10 0 6 -2 10 -4 10 -3 0
-8 -4 -11 -10z"/>
<path d="M8202 3035 c0 -16 2 -22 5 -12 2 9 2 23 0 30 -3 6 -5 -1 -5 -18z"/>
<path d="M1878 3013 c7 -3 16 -2 19 1 4 3 -2 6 -13 5 -11 0 -14 -3 -6 -6z"/>
<path d="M7607 3004 c-3 -3 -1 -17 5 -30 8 -18 8 -41 0 -88 -12 -63 -16 -136
-8 -136 16 0 36 14 36 25 0 15 22 25 56 25 29 0 32 16 4 25 -14 4 -20 15 -20
34 0 45 -12 91 -21 85 -5 -3 -9 -1 -9 5 0 5 8 14 17 20 14 8 15 12 4 25 -13
16 -52 22 -64 10z"/>
<path d="M7302 2960 c0 -14 2 -19 5 -12 2 6 2 18 0 25 -3 6 -5 1 -5 -13z"/>
<path d="M7504 2944 c3 -9 6 -22 6 -30 0 -8 5 -14 10 -14 6 0 10 14 10 30 0
21 -5 30 -16 30 -11 0 -14 -5 -10 -16z"/>
<path d="M7410 2930 c0 -24 15 -27 24 -4 9 22 8 24 -9 24 -8 0 -15 -9 -15 -20z"/>
<path d="M7704 2916 c-15 -12 -17 -17 -6 -27 10 -11 15 -10 29 4 24 23 4 43
-23 23z"/>
<path d="M7269 2774 c-3 -97 -7 -127 -19 -135 -11 -8 -6 -9 19 -5 34 6 61 22
61 36 0 5 -9 6 -21 3 -18 -5 -20 -2 -17 23 2 22 9 30 27 32 20 3 23 0 18 -17
-4 -19 -1 -21 32 -21 21 0 72 -3 113 -6 66 -6 76 -5 82 11 10 28 -6 36 -56 26
-26 -4 -50 -5 -55 -1 -7 7 -34 12 -123 23 -23 3 -25 8 -28 67 -2 35 -9 68 -16
76 -12 11 -15 -7 -17 -112z"/>
<path d="M7321 2824 c0 -11 3 -14 6 -6 3 7 2 16 -1 19 -3 4 -6 -2 -5 -13z"/>
<path d="M995 2744 c-38 -7 -145 -25 -238 -39 -92 -14 -195 -35 -230 -46 -40
-13 -104 -22 -180 -26 -107 -6 -120 -8 -133 -28 -8 -12 -32 -27 -54 -34 -34
-10 -40 -17 -47 -49 -8 -39 -8 -2320 0 -2329 6 -6 69 6 85 16 10 6 13 275 15
1166 l2 1159 35 2 c61 5 243 34 303 50 31 8 121 21 200 30 78 8 169 22 202 31
82 23 212 30 380 20 77 -4 178 -6 225 -3 l85 5 -2 -1072 c-1 -590 -5 -1144 -9
-1232 l-6 -160 -704 2 -704 1 0 -24 c0 -31 30 -47 64 -34 l26 10 -6 -55 -7
-55 1239 2 1239 3 3 61 3 62 63 7 63 6 5 92 c3 51 4 443 2 872 l-3 780 -28 6
c-54 11 -73 27 -73 64 0 43 -20 55 -96 55 -59 0 -60 1 -40 51 6 13 -5 18 -64
26 -68 9 -72 8 -80 -11 -9 -21 -9 -21 -9 1 -1 12 3 23 8 25 5 2 12 15 16 29 6
26 4 28 -62 50 -37 12 -74 22 -80 22 -7 0 -13 3 -13 7 0 18 -52 60 -73 60 -34
0 -75 35 -85 73 -8 30 -12 32 -60 38 -76 10 -82 14 -82 53 0 38 0 37 -102 51
-47 6 -48 7 -48 41 0 32 -2 34 -37 36 -21 0 -42 2 -48 3 -5 2 -18 3 -27 4 -11
1 -21 15 -28 41 l-11 40 -55 0 c-53 0 -55 1 -60 30 l-6 30 -302 -1 c-210 -1
-322 -5 -371 -15z m770 -206 c-2 -35 -4 -573 -4 -1195 -2 -957 -4 -1133 -16
-1133 -20 0 -28 36 -14 62 9 17 10 289 6 1163 -6 1127 -5 1165 23 1165 4 0 6
-28 5 -62z m147 -35 c-2 -27 -9 -43 -17 -43 -8 0 -16 -8 -18 -17 -3 -10 -5 2
-6 27 -1 48 5 64 29 72 19 7 18 10 12 -39z m597 -369 c10 -9 -45 -3 -59 6 -11
7 -5 8 20 4 19 -4 37 -8 39 -10z m129 -91 c-4 -23 -42 -23 -75 -1 l-28 18 53
0 c45 0 53 -3 50 -17z m79 -87 c-11 -24 -12 -24 -19 -5 -4 11 -12 17 -18 14
-5 -3 -10 -1 -10 4 0 6 13 11 29 11 27 0 28 -1 18 -24z m10 -18 c-3 -8 -6 -5
-6 6 -1 11 2 17 5 13 3 -3 4 -12 1 -19z m87 -455 c-3 -241 -8 -440 -10 -442
-2 -2 -4 36 -5 85 0 49 -3 83 -6 77 -9 -23 -33 -14 -33 12 0 14 -4 25 -10 25
-5 0 -10 9 -10 20 0 11 -4 20 -10 20 -5 0 -10 16 -10 35 0 28 -4 35 -20 35
-11 0 -20 5 -20 11 0 5 -5 7 -10 4 -7 -4 -10 27 -9 89 l1 96 -36 33 c-20 19
-36 44 -36 56 0 17 -6 21 -37 22 -21 1 -46 1 -55 0 -15 -2 -18 6 -18 53 0 49
-2 56 -20 56 -16 0 -20 7 -20 35 0 36 9 41 63 36 11 -2 17 5 17 18 0 19 6 21
55 21 50 0 55 -2 56 -22 l2 -23 4 23 c4 18 11 22 44 22 23 0 39 5 39 12 0 6 3
8 6 5 4 -3 16 0 28 8 11 8 31 15 43 15 l23 0 -6 -437z m-603 264 c-10 -9 -11
-8 -5 6 3 10 9 15 12 12 3 -3 0 -11 -7 -18z m-67 -2 c-4 -8 -10 -15 -15 -15
-4 0 -6 7 -3 15 4 8 10 15 15 15 4 0 6 -7 3 -15z m36 1 c0 -2 -7 -7 -16 -10
-8 -3 -12 -2 -9 4 6 10 25 14 25 6z m-50 -116 c0 -12 -47 -13 -53 -2 -3 4 8 8
24 9 16 1 29 -2 29 -7z m346 -67 c9 -56 10 -58 41 -61 30 -3 31 -5 35 -55 1
-29 2 -73 0 -98 -3 -40 -7 -47 -34 -60 -44 -19 -44 -32 -3 -52 l35 -17 0 -96
0 -97 -39 6 c-31 4 -38 2 -34 -9 3 -8 2 -25 -1 -39 -6 -25 -7 -25 -120 -25
l-114 0 -12 33 c-16 43 -30 353 -23 505 l6 122 127 0 128 0 8 -57z m-408 -163
c0 -58 -3 -94 -5 -80 -3 14 -9 30 -15 37 -5 7 -7 34 -3 65 4 29 7 78 7 108 l0
55 8 -40 c5 -22 8 -87 8 -145z m-201 -57 c-2 -16 -4 -3 -4 27 0 30 2 43 4 28
2 -16 2 -40 0 -55z m0 -475 c-1 -68 -3 -15 -3 117 0 132 2 187 3 123 2 -64 2
-172 0 -240z m813 236 c0 -8 -4 -12 -10 -9 -5 3 -10 10 -10 16 0 5 5 9 10 9 6
0 10 -7 10 -16z m-550 -24 c0 -5 -11 -10 -25 -10 -14 0 -25 5 -25 10 0 6 11
10 25 10 14 0 25 -4 25 -10z m544 -75 c5 -22 4 -26 -4 -15 -5 8 -10 24 -10 34
0 26 6 18 14 -19z m-144 -130 c0 -15 -27 -45 -40 -45 -7 0 -5 22 6 57 4 16 34
5 34 -12z m-183 -31 c-3 -3 -12 -4 -19 -1 -8 3 -5 6 6 6 11 1 17 -2 13 -5z"/>
<path d="M2316 1478 c-3 -13 -6 -42 -6 -65 l0 -41 65 -4 65 -3 0 61 0 61 -37
7 c-65 10 -80 8 -87 -16z"/>
<path d="M2312 1174 c3 -41 9 -79 15 -85 6 -6 33 -7 66 -3 l57 7 -1 36 c-3 92
-9 99 -103 114 l-39 6 5 -75z"/>
<path d="M2052 1390 c0 -14 2 -19 5 -12 2 6 2 18 0 25 -3 6 -5 1 -5 -13z"/>
<path d="M7146 2721 c-3 -5 -2 -21 4 -36 5 -14 10 -30 10 -35 0 -12 -42 -20
-68 -13 -18 4 -22 12 -22 46 0 28 -3 38 -10 31 -7 -7 -8 -38 -4 -83 l7 -73 30
6 c16 3 36 6 43 6 21 0 39 52 47 135 2 20 -27 33 -37 16z"/>
<path d="M1204 2541 c-56 -3 -107 -11 -115 -17 -24 -20 -149 -34 -397 -45
-130 -6 -266 -13 -302 -17 l-65 -7 -3 -657 -2 -658 45 0 45 0 0 109 0 108 503
5 c292 3 507 1 514 -4 11 -9 11 -77 0 -95 -4 -6 -34 -13 -68 -16 -66 -6 -85
-18 -91 -57 -2 -14 -7 -28 -11 -31 -11 -8 125 -22 193 -20 30 2 56 4 58 6 2 2
6 138 9 303 4 218 3 301 -5 306 -7 4 -28 4 -47 0 -29 -5 -37 -12 -42 -35 -7
-37 -14 -41 -75 -41 -41 0 -51 -4 -58 -22 -6 -16 -10 -6 -15 42 -7 57 -10 63
-34 68 -14 3 -38 10 -53 14 -28 9 -28 9 -28 -41 l0 -50 -237 1 c-131 0 -300 4
-375 7 l-138 6 0 54 0 54 433 -1 c237 -1 487 2 555 6 l123 7 -3 353 c-2 194
-6 355 -9 359 -10 9 -194 13 -305 6z m224 -178 l3 -43 -80 0 -81 0 0 44 0 44
78 -2 77 -1 3 -42z m-627 -79 c382 1 378 2 379 -45 0 -22 -75 -27 -452 -36
l-298 -6 1 64 c1 35 4 54 6 43 l4 -22 360 2z m532 -154 l107 0 0 -50 0 -50
-89 7 c-105 7 -165 -1 -157 -23 4 -9 -1 -14 -14 -14 -11 0 -20 -6 -20 -14 0
-9 13 -13 43 -12 23 0 85 -3 136 -7 94 -7 111 -14 111 -48 0 -32 -901 -52
-1018 -22 -22 5 -23 10 -21 67 1 33 -2 73 -6 89 -4 15 -4 38 -1 52 l6 25 328
3 c180 2 363 2 407 0 44 -1 128 -3 188 -3z m177 -29 c0 -57 -10 -64 -36 -25
-29 42 -29 41 -6 47 36 10 42 7 42 -22z m-367 -550 c-2 -30 -5 -56 -7 -58 -2
-3 -168 -5 -368 -6 l-363 -2 -3 57 -3 57 48 4 c26 2 194 3 373 3 l325 -1 -2
-54z m225 43 c51 -7 52 -7 52 -40 0 -32 -2 -33 -47 -39 -27 -3 -60 -9 -75 -11
-28 -6 -28 -5 -28 45 0 57 -2 56 98 45z"/>
<path d="M538 2023 c18 -2 45 -2 60 0 15 2 0 4 -33 4 -33 0 -45 -2 -27 -4z"/>
<path d="M858 2022 c7 -5 10 -16 6 -25 -6 -17 3 -21 83 -31 46 -7 183 12 183
24 0 12 -40 20 -110 21 -55 1 -60 3 -30 9 26 5 11 8 -55 9 -50 0 -84 -3 -77
-7z"/>
<path d="M8286 2451 c-4 -7 -5 -15 -2 -18 9 -9 19 4 14 18 -4 11 -6 11 -12 0z"/>
<path d="M3355 2301 c-44 -3 -87 -10 -95 -16 -8 -5 -33 -12 -55 -15 -43 -6
-42 -4 -29 -77 6 -32 6 -33 -28 -33 l-35 0 -6 -267 c-3 -148 -3 -342 1 -433 7
-154 8 -165 27 -168 56 -8 65 -13 65 -35 0 -47 8 -49 206 -58 104 -5 290 -6
414 -3 189 5 232 9 269 25 24 10 50 19 57 19 8 0 14 5 14 10 0 6 -5 10 -12 10
-8 0 -8 3 -2 9 5 6 29 11 54 13 l45 3 3 437 2 437 -32 3 c-33 3 -33 4 -36 61
l-3 57 -45 0 c-25 0 -53 4 -62 9 -21 11 -608 21 -717 12z m594 -71 l94 0 -6
-75 -5 -75 39 0 c53 0 79 15 79 45 0 14 3 25 8 25 9 0 10 -786 0 -795 -3 -4
-14 5 -23 19 -14 20 -25 26 -55 26 -43 0 -50 -12 -50 -92 l0 -48 -360 0 c-198
0 -363 1 -367 3 -5 1 -7 18 -5 37 2 19 1 53 -3 76 l-6 41 -47 -8 c-26 -4 -52
-8 -59 -8 -9 -1 -11 83 -11 342 l1 342 64 -3 64 -4 -7 76 -7 75 99 4 c55 2
182 3 284 1 102 -2 227 -4 279 -4z"/>
<path d="M3559 2136 c-3 -3 -24 -6 -47 -7 -23 -2 -42 -7 -42 -12 0 -4 -14 -21
-31 -36 -28 -26 -36 -43 -38 -79 -1 -9 -11 -11 -35 -6 -43 8 -57 0 -48 -27 4
-11 6 -35 4 -54 -3 -25 -10 -35 -28 -39 -21 -6 -24 -12 -24 -54 1 -81 18 -294
25 -300 3 -4 14 4 24 17 16 21 19 21 24 6 4 -9 7 -40 7 -68 0 -51 0 -51 20
-31 66 64 60 65 60 -7 l0 -64 55 -2 c30 -1 63 -7 74 -12 29 -16 160 -13 217 4
27 8 65 15 85 15 40 0 49 14 49 75 0 22 5 31 18 32 9 1 40 5 68 9 l51 6 6 124
c8 146 0 244 -20 251 -9 4 -13 24 -13 65 l0 61 -40 -6 c-22 -3 -42 -1 -45 4
-3 4 -12 6 -20 2 -11 -4 -15 2 -15 23 -1 44 -31 77 -72 78 -19 1 -43 9 -52 19
-14 14 -36 17 -115 17 -54 0 -100 -2 -102 -4z m143 -137 c66 -14 75 -22 56
-51 -25 -38 -11 -49 29 -22 54 36 71 33 64 -13 l-6 -38 -95 -11 c-57 -7 -78
-12 -53 -13 47 -1 50 -7 45 -82 l-4 -49 -44 0 -44 0 0 -49 c0 -54 -9 -66 -40
-56 -24 8 -25 18 -5 38 16 17 10 27 -16 27 -16 0 -18 -6 -13 -47 9 -83 14 -97
27 -84 6 6 41 11 80 11 l68 0 -3 -27 c-3 -26 -7 -29 -56 -34 -65 -8 -79 -19
-26 -20 34 -1 36 -2 14 -9 -41 -13 -50 -11 -61 13 -8 18 -17 23 -35 19 -13 -2
-34 -2 -47 2 -20 5 -23 11 -21 45 1 22 -1 50 -3 63 -4 23 -8 24 -62 20 l-58
-4 -7 32 c-3 18 -6 70 -6 115 l0 82 45 6 c24 4 51 4 59 1 11 -4 13 4 9 38 -5
39 -3 45 22 58 27 14 29 14 64 -28 20 -23 40 -42 44 -42 16 0 5 20 -33 59 -25
26 -36 43 -28 45 7 3 20 7 28 9 25 9 56 8 112 -4z m298 -75 c0 -8 -4 -12 -10
-9 -5 3 -10 10 -10 16 0 5 5 9 10 9 6 0 10 -7 10 -16z m-121 -84 c16 0 18 -12
19 -115 l1 -115 -32 0 c-24 0 -28 3 -17 10 13 8 12 10 -2 10 -16 0 -18 12 -18
109 0 79 4 111 13 114 6 2 14 0 15 -4 2 -5 12 -9 21 -9z m-76 3 c-7 -2 -21 -2
-30 0 -10 3 -4 5 12 5 17 0 24 -2 18 -5z m26 -234 c16 -46 14 -69 -6 -69 -26
1 -51 22 -63 54 -13 35 -6 46 30 46 23 0 30 -6 39 -31z m-346 -16 c-7 -2 -19
-2 -25 0 -7 3 -2 5 12 5 14 0 19 -2 13 -5z m14 -65 c-3 -8 -6 -5 -6 6 -1 11 2
17 5 13 3 -3 4 -12 1 -19z m301 -6 c2 -7 -3 -12 -12 -12 -9 0 -16 7 -16 16 0
17 22 14 28 -4z"/>
<path d="M3673 1793 c9 -2 25 -2 35 0 9 3 1 5 -18 5 -19 0 -27 -2 -17 -5z"/>
<path d="M3850 1649 c0 -5 5 -7 10 -4 6 3 10 8 10 11 0 2 -4 4 -10 4 -5 0 -10
-5 -10 -11z"/>
<path d="M3912 2038 c6 -18 25 -20 31 -3 5 10 0 15 -14 15 -12 0 -19 -5 -17
-12z"/>
<path d="M5740 2303 c-28 -10 -40 -37 -40 -90 0 -29 3 -53 8 -53 4 0 17 -3 29
-6 20 -6 22 -2 25 47 l3 54 39 3 c21 2 43 -1 49 -7 6 -6 9 -59 8 -134 -2 -98
1 -125 11 -130 26 -10 280 -8 274 2 -4 5 -36 13 -72 16 -36 4 -72 14 -80 22
-8 8 -14 34 -14 61 0 26 -3 78 -7 116 l-6 69 56 -6 c76 -9 85 -14 104 -55 l17
-36 9 37 c9 39 32 52 78 45 20 -3 24 -10 27 -47 2 -31 8 -44 21 -48 12 -3 17
-12 14 -26 -2 -12 -4 -101 -6 -197 l-2 -175 -300 0 -300 0 -3 198 -2 197 -24
0 c-20 0 -24 -6 -30 -46 -3 -26 -6 -115 -6 -198 0 -189 10 -218 80 -226 l45
-5 7 -115 c13 -207 19 -251 34 -257 16 -6 19 -33 4 -33 -11 0 -13 -56 -4 -112
6 -37 8 -38 51 -38 40 0 43 -2 33 -19 -12 -23 -13 -61 -2 -61 19 1 34 19 32
41 -4 45 -1 49 36 49 l37 0 -4 278 -4 277 62 0 c34 0 65 -4 70 -8 4 -5 7 -86
5 -181 -3 -168 -3 -172 20 -199 25 -28 57 -36 59 -14 1 6 3 19 4 27 1 8 3 41
4 73 1 53 3 57 24 57 23 0 24 -3 31 -120 8 -153 5 -169 -38 -165 -18 2 -38 0
-45 -4 -26 -16 18 -32 103 -37 l86 -5 -7 286 -6 285 50 0 c44 0 51 3 57 23 3
12 6 120 6 240 l0 217 -55 0 -55 0 0 70 0 70 -292 -1 c-161 0 -300 -3 -308 -6z
m118 -852 c10 -6 14 -44 15 -142 l2 -134 -29 2 c-16 1 -30 4 -32 6 -2 2 -5 65
-7 140 -4 133 -3 137 17 137 12 0 27 -4 34 -9z"/>
<path d="M7337 2216 c-26 -6 -51 -16 -55 -23 -4 -6 -34 -14 -67 -18 -33 -4
-112 -15 -175 -26 -63 -10 -134 -20 -157 -21 l-43 -3 -3 -149 c-2 -124 -1
-149 12 -154 8 -3 58 0 110 7 220 29 332 42 429 50 57 5 105 11 106 13 2 1 0
77 -3 168 l-6 165 -50 2 c-27 0 -72 -4 -98 -11z m49 -48 c10 -14 14 -16 11 -6
-7 21 19 32 27 12 3 -9 10 -12 16 -9 5 3 10 -1 10 -10 0 -9 -4 -14 -9 -10 -5
3 -12 1 -16 -5 -7 -11 -64 -14 -89 -4 -9 3 -16 17 -16 30 0 32 42 33 66 2z
m-120 -63 c3 -14 3 -55 -1 -90 -5 -53 -10 -65 -25 -65 -9 0 -32 -3 -49 -6 -26
-5 -32 -3 -40 17 -10 23 -10 24 -10 2 -1 -28 -37 -53 -77 -53 -36 0 -42 12
-39 76 2 40 2 41 -33 42 -43 2 -64 18 -42 32 8 5 24 10 35 10 15 0 17 2 6 9
-9 6 -10 11 -2 15 6 4 14 0 17 -9 6 -14 8 -14 18 -1 6 8 40 20 75 25 35 6 66
13 69 16 3 3 25 5 48 5 38 0 44 -3 50 -25z m140 -41 c9 -21 13 -48 9 -65 -6
-26 -11 -29 -46 -29 l-39 0 0 48 c0 50 6 66 30 75 27 10 31 7 46 -29z m-398
-83 c6 -64 -4 -81 -48 -81 l-40 0 0 43 c0 59 15 75 65 73 15 -1 21 -9 23 -35z"/>
<path d="M5398 2113 c7 -3 16 -2 19 1 4 3 -2 6 -13 5 -11 0 -14 -3 -6 -6z"/>
<path d="M4532 2070 c0 -19 2 -27 5 -17 2 9 2 25 0 35 -3 9 -5 1 -5 -18z"/>
<path d="M5281 1988 c0 -13 4 -43 8 -68 7 -44 7 -44 15 -15 11 44 35 65 75 66
l36 2 -40 6 c-22 4 -50 12 -62 19 -30 16 -33 15 -32 -10z"/>
<path d="M4810 1990 c-19 -5 -36 -13 -38 -19 -5 -16 -54 -13 -80 5 l-22 15 0
-68 0 -68 -55 1 c-39 0 -55 -3 -55 -13 0 -7 6 -13 13 -13 7 0 18 -9 24 -19 10
-16 9 -20 -7 -24 -12 -3 -21 -18 -26 -41 -6 -34 -9 -37 -34 -31 l-27 6 -6
-137 c-5 -108 -3 -144 8 -168 8 -17 15 -49 17 -71 3 -39 4 -40 36 -37 17 2 32
-1 32 -7 0 -6 6 -8 13 -5 41 16 70 -81 48 -163 -12 -42 -12 -43 -56 -43 l-45
0 0 45 0 45 -75 0 c-71 0 -75 -1 -74 -22 1 -29 17 -71 18 -47 1 19 21 29 56
29 21 0 24 -5 27 -47 l3 -48 70 -3 c38 -2 74 -7 81 -12 18 -16 24 0 24 67 l0
63 34 0 c18 0 53 -7 77 -16 36 -13 70 -15 193 -9 119 5 151 4 157 -7 5 -8 9
21 9 71 0 83 0 83 24 79 16 -3 27 0 31 10 4 11 16 13 50 10 l45 -6 0 58 c0 85
3 90 65 90 64 0 69 8 60 95 l-7 61 -33 0 c-48 0 -65 19 -65 70 0 45 -35 119
-51 108 -5 -3 -19 -2 -30 1 -18 6 -20 12 -15 47 l6 39 -42 -3 -43 -3 3 63 c4
62 3 63 -17 50 -17 -10 -32 -10 -88 4 -86 21 -188 29 -233 18z m223 -140 c30
-22 60 -40 65 -40 13 0 29 -49 24 -77 -2 -13 -12 -23 -24 -25 -30 -4 -39 -44
-37 -163 l2 -100 -52 -3 c-29 -2 -59 2 -66 8 -9 7 -14 8 -17 0 -2 -6 -40 -11
-93 -12 -50 -1 -75 -4 -57 -6 29 -3 32 -7 32 -35 0 -48 -22 -73 -65 -75 -20
-1 -40 -4 -45 -7 -5 -3 -12 21 -16 52 -4 32 -9 51 -12 43 -13 -42 -76 -55 -86
-17 -3 12 -6 86 -6 165 l0 142 45 0 45 0 0 45 c0 31 5 47 15 51 8 4 15 12 15
20 0 16 61 34 90 27 16 -4 20 -1 20 21 0 26 0 26 83 26 82 0 85 -1 140 -40z
m184 -287 c-4 -87 -10 -129 -19 -134 -21 -13 -28 13 -35 140 l-6 121 33 0 33
0 -6 -127z m-310 -306 c69 1 83 -5 83 -39 0 -16 -11 -18 -86 -18 -74 0 -85 2
-80 16 3 9 6 25 7 37 0 12 2 18 5 12 2 -6 34 -9 71 -8z"/>
<path d="M4475 1981 c40 -6 40 -6 45 -58 3 -28 9 -55 14 -60 5 -4 6 9 3 32 -4
22 -7 52 -7 68 0 26 -2 27 -47 26 l-48 -2 40 -6z"/>
<path d="M5308 1863 c12 -2 32 -2 45 0 12 2 2 4 -23 4 -25 0 -35 -2 -22 -4z"/>
<path d="M7304 1801 c-33 -6 -45 -23 -44 -60 1 -20 2 -57 1 -83 l-1 -48 -55 0
-55 0 -2 48 -1 47 -6 -45 c-7 -49 -34 -72 -81 -68 -23 3 -25 7 -28 61 -4 71
-16 74 -20 4 -4 -62 -9 -69 -53 -65 l-34 3 -1 84 c-1 69 -5 87 -20 98 -24 18
-44 16 -44 -3 0 -8 -4 -12 -10 -9 -6 4 -10 -184 -10 -549 0 -305 -1 -561 -2
-568 -2 -9 8 -13 32 -12 101 4 635 37 638 39 2 2 0 50 -4 107 -7 83 -10 95
-15 63 l-6 -40 -2 43 -1 42 -50 0 c-27 0 -50 -3 -50 -7 0 -5 -20 -7 -45 -6
-56 1 -65 -12 -65 -97 l0 -61 -52 3 -52 3 -10 45 -10 45 -6 -45 -5 -45 -52 -3
-52 -3 -3 53 -4 53 -8 -52 c-8 -49 -11 -53 -42 -59 -61 -11 -67 -3 -60 75 7
73 3 81 -45 81 -10 0 -19 6 -19 14 0 29 185 55 460 64 l185 7 3 72 c2 40 -1
87 -6 105 l-8 33 -80 1 c-43 1 -91 0 -106 -3 -27 -4 -28 -6 -28 -73 0 -38 -3
-71 -7 -73 -5 -3 -33 -1 -63 3 -30 4 -59 4 -65 0 -5 -4 -27 -10 -47 -14 -33
-6 -38 -4 -52 21 l-14 28 -11 -27 c-9 -24 -16 -28 -51 -28 l-40 0 0 48 c0 26
5 53 12 60 7 7 8 12 4 12 -5 0 -3 6 3 14 9 11 6 16 -19 25 -18 6 -29 14 -26
19 3 5 74 14 158 21 184 14 348 29 404 37 l42 6 1 95 c1 57 -2 92 -8 89 -5 -4
-12 3 -16 14 -11 34 -64 25 -78 -14 -7 -17 -9 -17 -25 -4 -9 9 -31 18 -49 21
-45 9 -65 -24 -61 -103 2 -32 1 -60 -2 -63 -3 -2 -27 -2 -53 1 -38 3 -50 9
-57 26 l-9 21 0 -22 c-1 -28 -28 -43 -76 -43 l-36 0 3 53 3 52 44 -1 c30 -1
48 -7 57 -19 16 -22 21 -19 26 15 3 25 3 25 -97 31 -121 8 -173 22 -184 52
-18 48 -14 49 227 66 114 7 151 14 184 31 27 14 70 24 122 28 l81 7 3 100 c1
55 -2 107 -8 115 -7 11 -29 15 -88 15 -43 0 -87 -2 -98 -4z m107 -61 c5 0 9
-20 9 -45 l0 -45 -45 0 c-44 0 -45 1 -45 33 0 47 24 72 58 61 8 -2 18 -4 23
-4z m-1 -395 c0 -40 -2 -44 -30 -50 -40 -9 -46 -3 -42 44 3 33 9 42 31 49 36
13 41 7 41 -43z m-402 12 c6 -7 8 -31 5 -55 l-6 -42 -48 0 -49 0 0 48 c0 27 3
52 7 55 11 12 80 7 91 -6z m469 -44 c-3 -10 -5 -4 -5 12 0 17 2 24 5 18 2 -7
2 -21 0 -30z m-72 -184 c9 -16 15 -45 13 -62 -3 -30 -6 -32 -45 -35 -40 -3
-43 -1 -43 21 0 14 6 40 14 58 25 59 38 63 61 18z m15 -338 c0 -37 -1 -39 -37
-44 -49 -6 -53 -3 -53 37 0 42 5 46 52 46 38 0 38 0 38 -39z"/>
<path d="M8158 1783 c7 -3 16 -2 19 1 4 3 -2 6 -13 5 -11 0 -14 -3 -6 -6z"/>
<path d="M8268 1713 c7 -3 16 -2 19 1 4 3 -2 6 -13 5 -11 0 -14 -3 -6 -6z"/>
<path d="M5185 1247 c-10 -25 3 -67 20 -67 18 0 18 -4 1 45 -11 31 -16 36 -21
22z"/>
<path d="M5405 1218 c0 -32 -2 -33 -43 -36 -24 -2 -49 2 -56 7 -20 17 -26 3
-26 -57 0 -48 -2 -53 -17 -46 -32 14 -88 11 -94 -6 -14 -34 1 -40 95 -40 52 0
85 4 78 9 -9 5 -12 24 -10 52 3 40 6 44 31 47 23 3 30 -2 43 -30 14 -30 14
-30 9 -5 -6 31 9 68 28 64 15 -3 10 55 -7 65 -22 15 -31 8 -31 -24z"/>
<path d="M4594 1195 c-3 -8 -1 -27 4 -42 10 -27 10 -26 11 15 1 43 -5 54 -15
27z"/>
<path d="M688 1153 c17 -2 47 -2 65 0 17 2 3 4 -33 4 -36 0 -50 -2 -32 -4z"/>
<path d="M9700 1139 c7 -11 14 -18 17 -15 8 8 -5 36 -17 36 -7 0 -7 -6 0 -21z"/>
<path d="M458 1143 c18 -2 45 -2 60 0 15 2 0 4 -33 4 -33 0 -45 -2 -27 -4z"/>
<path d="M3279 1096 c-58 -21 -103 -50 -116 -77 -10 -18 -13 -20 -13 -6 0 9
-5 17 -11 17 -6 0 -8 -8 -4 -19 3 -11 -1 -26 -12 -37 -17 -16 -18 -46 -16
-418 2 -351 4 -401 17 -408 11 -6 16 -24 16 -53 0 -38 3 -45 20 -45 31 0 71
-22 66 -37 -4 -11 78 -13 455 -13 l461 0 -6 24 c-7 29 12 39 59 30 31 -6 33
-4 39 33 9 50 20 817 12 849 -4 14 -16 26 -31 30 -19 5 -25 13 -25 33 0 19 -7
30 -27 39 -16 6 -42 22 -60 35 -28 21 -45 24 -175 30 -248 12 -609 8 -649 -7z
m740 -72 c2 -2 6 -29 10 -61 l6 -58 66 0 66 0 -1 -357 c-1 -196 -4 -359 -6
-361 -3 -2 -31 -1 -62 2 -65 8 -68 4 -68 -80 l0 -46 -46 -7 c-26 -3 -192 -6
-370 -6 l-323 0 -3 78 -3 77 -57 -1 -58 -1 0 302 c0 166 -3 323 -6 349 l-7 46
66 0 c74 0 77 3 77 80 l0 49 38 3 c45 4 675 -3 681 -8z"/>
<path d="M3561 933 c-13 -2 -37 -13 -55 -24 -17 -10 -41 -19 -54 -19 -17 0
-24 -7 -28 -29 -7 -32 -41 -49 -51 -25 -7 19 -23 18 -23 -1 0 -8 -7 -15 -15
-15 -15 0 -19 -10 -16 -41 1 -9 -5 -22 -14 -29 -8 -7 -15 -27 -15 -46 0 -18
-4 -36 -10 -39 -19 -12 -10 -223 15 -332 7 -29 21 -29 30 0 7 20 8 19 12 -10
6 -43 31 -43 78 -2 41 37 44 33 10 -17 -29 -43 -35 -100 -9 -90 35 13 113 -6
144 -35 26 -26 37 -29 92 -29 56 0 189 27 146 29 -10 1 -18 6 -18 12 0 7 23
10 68 8 l67 -4 -4 40 c-1 22 -7 48 -13 58 -13 24 -5 31 20 18 11 -6 44 -10 74
-10 l55 1 7 60 c3 34 6 114 6 178 0 96 -3 119 -15 124 -10 3 -15 19 -15 43 0
21 -3 55 -6 76 -6 35 -8 37 -38 32 -75 -12 -81 -11 -78 10 2 10 11 25 20 32
13 9 13 12 3 13 -7 0 -31 14 -53 32 -40 31 -41 31 -167 34 -69 1 -137 0 -150
-3z m192 -138 c33 -5 36 -8 22 -21 -8 -9 -15 -22 -15 -29 0 -11 6 -12 26 -5
14 6 35 10 46 10 19 0 20 -5 16 -45 l-6 -45 38 0 37 0 6 -67 c4 -38 7 -89 7
-115 l0 -48 -50 0 -50 0 0 -40 c0 -33 -3 -40 -19 -40 -25 0 -51 26 -51 51 0
18 -8 19 -119 19 -116 0 -121 -1 -152 -27 -23 -20 -31 -23 -26 -11 4 11 0 21
-11 28 -16 9 -16 11 1 24 24 19 3 26 -41 14 -19 -5 -36 -7 -38 -5 -3 3 -2 50
2 106 6 91 9 101 26 101 11 0 28 5 40 11 16 9 19 17 14 41 -5 26 -4 29 9 18 8
-7 16 -20 16 -29 1 -9 4 0 8 19 5 29 12 37 38 45 21 6 32 15 30 25 -3 24 93
31 196 15z m-163 -427 c0 -6 9 0 19 13 17 21 22 22 41 11 13 -8 33 -11 50 -7
26 6 28 4 35 -34 5 -30 3 -45 -8 -56 -21 -20 -96 -20 -103 0 -4 10 -20 15 -48
15 -50 0 -66 13 -66 56 l0 32 40 -10 c22 -6 40 -15 40 -20z"/>
<path d="M3571 664 c0 -11 3 -14 6 -6 3 7 2 16 -1 19 -3 4 -6 -2 -5 -13z"/>
<path d="M3700 660 c0 -5 11 -12 24 -16 21 -5 25 -12 28 -61 3 -52 -5 -77 -15
-51 -3 7 -6 -10 -6 -39 l-1 -51 41 -7 c28 -5 44 -3 49 4 11 19 11 109 0 116
-5 3 -10 17 -10 31 0 14 4 22 10 19 6 -3 10 1 10 10 0 9 -4 13 -10 10 -6 -3
-7 1 -4 9 4 11 -3 19 -21 26 -34 13 -95 13 -95 0z"/>
<path d="M3650 489 c0 -36 2 -40 15 -29 8 7 22 10 30 6 12 -4 15 2 15 29 0 32
-2 35 -30 35 -28 0 -30 -2 -30 -41z"/>
<path d="M3580 459 c0 -17 4 -28 10 -24 6 3 10 17 10 31 0 13 -4 24 -10 24 -5
0 -10 -14 -10 -31z"/>
<path d="M3501 473 c0 -6 -4 -20 -7 -30 -5 -14 -4 -15 5 -7 7 7 11 20 8 30 -3
11 -5 14 -6 7z"/>
<path d="M6200 1073 c1 -27 1 -27 15 -9 14 19 12 36 -6 36 -5 0 -9 -12 -9 -27z"/>
<path d="M362 1042 c-36 -4 -47 -20 -38 -56 6 -24 52 -43 59 -23 1 5 49 8 117
6 63 -2 254 -3 425 -1 315 3 542 -10 558 -32 6 -7 7 -5 4 6 -3 9 0 19 7 21 15
6 27 53 19 73 -3 10 -23 11 -76 6 -68 -7 -979 -5 -1022 1 -11 2 -35 2 -53 -1z"/>
<path d="M324 895 c-2 -5 -5 -141 -6 -302 l-3 -292 603 0 602 1 0 34 c0 21 -8
42 -20 54 -22 22 -50 29 -32 8 8 -10 -19 -14 -131 -16 -78 -2 -151 -4 -162 -5
-11 0 -185 0 -387 1 l-368 2 0 24 c0 24 2 24 128 31 185 11 875 -3 884 -18 6
-9 8 -9 8 1 0 7 15 12 39 12 l40 0 1 235 0 235 -212 1 c-840 4 -981 3 -984 -6z
m1178 -90 c-3 -16 -11 -25 -24 -25 -10 0 -16 5 -13 10 4 6 11 8 16 5 5 -4 9
-1 9 4 0 6 -13 11 -30 11 -16 0 -29 -3 -29 -7 5 -33 4 -33 -521 -33 -552 0
-532 -2 -514 44 6 14 64 16 559 16 l552 0 -5 -25z m-15 -113 c17 -5 20 -11 13
-22 -11 -18 -280 -27 -797 -29 -260 -1 -313 1 -313 13 0 17 31 26 88 26 26 0
41 4 37 10 -7 11 934 13 972 2z m-267 -128 c121 -5 160 -10 160 -20 0 -7 -5
-16 -11 -20 -6 -3 -224 -7 -484 -7 -379 -1 -476 2 -489 12 -39 33 -4 37 334
40 181 1 402 -1 490 -5z"/>
<path d="M4674 869 c3 -17 6 -40 6 -51 0 -20 5 -20 206 -13 l207 8 -6 -24 c-4
-13 -7 -41 -7 -61 0 -21 -6 -43 -13 -50 -9 -8 -12 -28 -9 -60 4 -45 3 -48 -18
-48 -13 0 -20 -3 -16 -7 4 -4 15 -8 23 -8 18 0 35 -48 26 -71 -4 -11 -7 -11
-20 1 -13 14 -50 12 -75 -2 -7 -4 19 -52 34 -63 12 -9 28 -98 22 -115 -5 -12
-9 -13 -14 -5 -17 27 -297 34 -427 10 -23 -4 -45 -5 -48 -2 -3 3 -5 62 -6 131
0 69 -4 146 -7 171 l-7 45 -50 3 -50 3 -2 -193 c-2 -106 -5 -212 -9 -236 l-5
-43 83 3 83 3 0 -62 c0 -51 3 -62 15 -59 8 2 32 7 53 11 l37 6 0 -46 0 -45
147 0 c81 0 183 5 225 12 74 12 78 14 78 38 0 15 6 35 14 45 13 18 14 18 31
-3 27 -30 35 -19 35 49 l0 61 75 -4 75 -3 -1 130 c0 143 -12 301 -22 312 -4 3
-32 7 -62 7 l-55 1 0 61 0 61 -51 5 c-58 6 -69 17 -69 74 l0 41 -122 6 c-66 4
-164 7 -216 7 l-94 0 6 -31z m548 -384 c16 -21 7 -34 -19 -32 -21 2 -29 8 -31
25 -3 20 0 23 20 20 13 -2 26 -7 30 -13z m-322 -291 c19 -2 49 -7 65 -12 27
-8 24 -10 -35 -16 -36 -4 -103 -6 -150 -4 -70 2 -85 6 -88 20 -5 28 25 30 208
12z"/>
<path d="M5799 890 c0 -3 0 -31 1 -63 l1 -57 -71 6 c-68 7 -72 6 -67 -12 3
-10 8 -34 12 -51 l7 -33 66 0 67 0 0 62 0 63 137 3 c76 1 159 -1 185 -5 l48
-8 -4 -85 c-2 -70 -6 -87 -22 -98 -22 -15 -17 -32 9 -32 13 0 17 -9 18 -38 1
-20 -4 -40 -10 -44 -6 -4 -37 -8 -70 -8 l-58 0 6 -31 c3 -17 6 -40 6 -51 0
-10 5 -16 10 -13 13 8 13 -5 -2 -38 l-13 -27 -141 0 -141 0 -5 -50 c-4 -36
-11 -55 -29 -69 -13 -11 -27 -20 -31 -21 -5 0 -8 29 -8 65 l0 65 -31 0 c-29 0
-31 2 -25 27 3 16 9 88 12 161 8 151 8 152 -62 152 l-42 0 -7 -134 c-4 -74 -4
-179 0 -235 l7 -101 69 0 68 0 3 -57 c3 -56 4 -58 28 -54 64 9 65 9 68 -38 l3
-43 197 5 197 5 -3 52 -4 51 61 -7 61 -7 0 53 0 53 65 -7 65 -7 0 236 0 235
-47 -6 c-27 -3 -54 -7 -60 -10 -15 -4 -16 16 -4 66 10 47 -7 63 -74 70 l-50 5
2 52 2 52 -199 3 c-110 2 -200 1 -201 -2z m305 -486 c10 -25 7 -44 -6 -44 -7
0 -13 13 -14 30 -1 32 10 40 20 14z m-159 -196 c78 3 157 -7 149 -19 -5 -9
-284 -13 -284 -5 0 26 15 36 44 30 17 -4 58 -7 91 -6z"/>
<path d="M8224 878 c-3 -4 13 -8 35 -8 23 0 41 2 41 4 0 8 -71 12 -76 4z"/>
<path d="M4564 771 c-2 -2 -4 -26 -4 -53 l0 -48 60 0 60 0 0 53 0 52 -56 0
c-31 0 -58 -2 -60 -4z"/>
<path d="M8015 528 c-4 -51 -5 -106 -3 -121 l3 -29 325 2 c179 1 336 2 350 3
l25 2 -3 105 c-2 58 -8 109 -13 114 -8 9 -249 10 -258 1 -2 -3 -3 -36 -2 -75
l2 -70 -58 0 c-32 0 -81 -3 -109 -6 -37 -5 -54 -3 -65 9 -13 12 -18 13 -34 1
-20 -15 -71 -19 -78 -6 -3 4 -2 25 2 47 5 34 10 40 34 43 19 2 33 -3 46 -19
l18 -23 8 25 c10 32 22 39 67 39 35 0 37 -2 43 -37 11 -62 13 -61 14 3 l1 62
-117 6 c-65 3 -134 8 -154 12 l-37 6 -7 -94z m599 -10 c-4 -24 -7 -44 -8 -45
-1 -1 -21 -5 -44 -9 l-42 -7 0 46 c0 49 5 54 67 56 l32 1 -5 -42z"/>
<path d="M7276 510 l-8 -91 -56 3 c-57 3 -57 3 -61 38 l-5 35 -5 -40 c-6 -40
-6 -40 -53 -43 l-48 -3 -1 33 c-2 55 -4 61 -16 65 -9 3 -13 -9 -13 -40 0 -44
0 -45 -37 -50 -21 -2 -41 -2 -45 0 -10 5 -10 105 0 119 4 6 14 13 22 16 8 3
-5 10 -30 15 -26 6 -50 6 -57 1 -7 -5 -13 -4 -16 4 -3 7 -6 -40 -6 -105 l-1
-118 330 3 330 3 0 123 0 122 -109 0 -108 0 -7 -90z m142 -12 l-3 -53 -37 -3
c-40 -3 -44 2 -39 58 3 35 19 50 53 50 29 0 29 0 26 -52z"/>
<path d="M7007 564 c-3 -3 -3 -13 0 -21 5 -12 7 -12 14 -1 15 23 4 40 -14 22z"/>
<path d="M8016 317 c-3 -16 -6 -49 -6 -73 l0 -43 103 6 c56 3 103 6 103 7 1 0
4 20 7 44 l5 42 -69 0 c-64 0 -70 2 -81 25 -16 35 -54 30 -62 -8z"/>
<path d="M6841 267 c-1 -36 2 -46 12 -41 9 6 9 4 -1 -8 -17 -22 0 -27 53 -17
22 5 64 8 93 9 l52 0 0 41 c0 34 -3 40 -17 35 -58 -16 -100 -17 -113 -2 -20
25 -60 21 -61 -6 -1 -19 -3 -17 -9 7 -7 27 -8 25 -9 -18z"/>
<path d="M8452 302 c-8 -6 -12 -24 -10 -48 l3 -39 133 -3 132 -3 -6 43 c-4 24
-9 45 -11 48 -7 8 -228 10 -241 2z m128 -18 c0 -8 -19 -13 -24 -6 -3 5 1 9 9
9 8 0 15 -2 15 -3z"/>
<path d="M7275 292 c-3 -3 -5 -23 -5 -45 l0 -39 53 3 c99 4 165 -1 170 -13 2
-7 3 0 1 16 -2 16 -4 41 -4 56 l0 28 -105 0 c-57 0 -107 -3 -110 -6z"/>
</g>
</svg>
